<?xml version="1.0" encoding="UTF-8"?>
<svg xmlns="http://www.w3.org/2000/svg" xmlns:xlink="http://www.w3.org/1999/xlink" width="310.95401pt" height="101.634888pt" viewBox="0 0 310.95401 101.634888" version="1.2">
<defs>
<clipPath id="clip1">
  <path d="M 0.535156 0 L 310.375 0 L 310.375 101.269531 L 0.535156 101.269531 Z M 0.535156 0 "/>
</clipPath>
<clipPath id="clip2">
  <path d="M 308 15 L 310.375 15 L 310.375 24 L 308 24 Z M 308 15 "/>
</clipPath>
<clipPath id="clip3">
  <path d="M 0.535156 18.601562 L 5 18.601562 L 5 22.585938 L 0.535156 22.585938 Z M 0.535156 18.601562 "/>
</clipPath>
<clipPath id="clip4">
  <path d="M 0.535156 6 L 8 6 L 8 16 L 0.535156 16 Z M 0.535156 6 "/>
</clipPath>
<clipPath id="clip5">
  <path d="M 307 9 L 310.375 9 L 310.375 13 L 307 13 Z M 307 9 "/>
</clipPath>
<clipPath id="clip6">
  <path d="M 304 6 L 310.375 6 L 310.375 16 L 304 16 Z M 304 6 "/>
</clipPath>
<clipPath id="clip7">
  <path d="M 261 97 L 267 97 L 267 101.269531 L 261 101.269531 Z M 261 97 "/>
</clipPath>
<clipPath id="clip8">
  <path d="M 47 97 L 53 97 L 53 101.269531 L 47 101.269531 Z M 47 97 "/>
</clipPath>
<clipPath id="clip9">
  <path d="M 24 6 L 290 6 L 290 101.269531 L 24 101.269531 Z M 24 6 "/>
</clipPath>
<clipPath id="clip10">
  <path d="M 137 97 L 144 97 L 144 101.269531 L 137 101.269531 Z M 137 97 "/>
</clipPath>
<clipPath id="clip11">
  <path d="M 25 97 L 29 97 L 29 101.269531 L 25 101.269531 Z M 25 97 "/>
</clipPath>
<clipPath id="clip12">
  <path d="M 22 95 L 32 95 L 32 101.269531 L 22 101.269531 Z M 22 95 "/>
</clipPath>
<clipPath id="clip13">
  <path d="M 114 97 L 118 97 L 118 101.269531 L 114 101.269531 Z M 114 97 "/>
</clipPath>
<clipPath id="clip14">
  <path d="M 112 95 L 121 95 L 121 101.269531 L 112 101.269531 Z M 112 95 "/>
</clipPath>
<clipPath id="clip15">
  <path d="M 238 97 L 242 97 L 242 101.269531 L 238 101.269531 Z M 238 97 "/>
</clipPath>
<clipPath id="clip16">
  <path d="M 235 95 L 245 95 L 245 101.269531 L 235 101.269531 Z M 235 95 "/>
</clipPath>
</defs>
<g id="surface1">
<g clip-path="url(#clip1)" clip-rule="nonzero">
<path style="fill:none;stroke-width:0.498;stroke-linecap:butt;stroke-linejoin:miter;stroke:rgb(0%,0%,0%);stroke-opacity:1;stroke-miterlimit:10;" d="M -188.752235 -508.350907 L -164.84243 -508.350907 M -140.685648 -532.013734 L -140.685648 -555.923538 M 396.326447 -532.013734 L 396.326447 -555.923538 M 420.487149 -508.350907 L 444.396954 -508.350907 M -188.752235 157.152375 L -164.84243 157.152375 M -140.685648 205.218962 L -140.685648 181.309158 M 396.326447 205.218962 L 396.326447 181.309158 M 420.487149 157.152375 L 444.396954 157.152375 " transform="matrix(0.99642,0,0,0.99642,0.533622,0)"/>
</g>
<path style="fill:none;stroke-width:0.5;stroke-linecap:butt;stroke-linejoin:miter;stroke:rgb(13.725281%,12.156677%,12.548828%);stroke-opacity:1;stroke-miterlimit:4;" d="M 163.167629 11.22377 L 116.253605 11.22377 M 26.878999 55.526885 L 26.878999 11.22377 M 229.459611 11.22377 L 240.103178 11.22377 M 163.167629 11.22377 L 171.9177 11.22377 " transform="matrix(0.99642,0,0,0.99642,0.533622,0)"/>
<path style="fill:none;stroke-width:0.5;stroke-linecap:butt;stroke-linejoin:miter;stroke:rgb(13.725281%,12.156677%,12.548828%);stroke-opacity:1;stroke-dasharray:5,2;stroke-miterlimit:4;" d="M 173.917044 11.22377 L 227.460266 11.22377 " transform="matrix(0.99642,0,0,0.99642,0.533622,0)"/>
<path style=" stroke:none;fill-rule:nonzero;fill:rgb(13.725281%,12.156677%,12.548828%);fill-opacity:1;" d="M 298.210938 21.5 C 298.085938 21.6875 297.480469 22.667969 297.152344 22.667969 C 296.917969 22.667969 296.902344 22.542969 296.683594 22.542969 C 296.542969 22.542969 296.359375 22.636719 296.359375 22.871094 C 296.359375 23.027344 296.496094 23.183594 296.746094 23.183594 C 297.308594 23.183594 297.710938 22.621094 298.753906 21.128906 C 299.796875 19.617188 300.234375 18.667969 300.234375 18.199219 C 300.234375 17.84375 300.0625 17.6875 299.828125 17.6875 C 299.628906 17.6875 299.503906 17.84375 299.503906 18.027344 C 299.503906 18.355469 299.828125 18.371094 299.828125 18.621094 C 299.828125 18.996094 299.003906 20.394531 298.722656 20.738281 C 298.476562 19.226562 298.148438 17.6875 297.992188 17.6875 C 297.898438 17.6875 297.527344 17.828125 296.996094 17.890625 L 296.964844 18.027344 C 297.480469 18.027344 297.601562 18.371094 297.726562 19.007812 Z M 298.210938 21.5 "/>
<path style=" stroke:none;fill-rule:nonzero;fill:rgb(13.725281%,12.156677%,12.548828%);fill-opacity:1;" d="M 303.757812 23.261719 L 303.757812 23.011719 L 303.507812 23.011719 C 302.992188 23.011719 302.699219 23.011719 302.699219 22.449219 L 302.699219 16.285156 C 302.699219 15.695312 302.992188 15.695312 303.507812 15.695312 L 303.757812 15.695312 L 303.757812 15.460938 L 302.042969 15.460938 L 302.042969 23.261719 Z M 303.757812 23.261719 "/>
<path style=" stroke:none;fill-rule:nonzero;fill:rgb(13.725281%,12.156677%,12.548828%);fill-opacity:1;" d="M 304.746094 21.390625 C 305.027344 20.441406 305.257812 19.914062 305.429688 19.601562 C 305.851562 18.855469 306.566406 18.121094 306.972656 18.121094 C 307.050781 18.121094 307.191406 18.183594 307.191406 18.339844 C 307.191406 18.480469 307.050781 19.007812 307.003906 19.164062 L 306.582031 20.707031 C 306.550781 20.832031 306.519531 20.957031 306.519531 21.050781 C 306.519531 21.238281 306.628906 21.46875 306.910156 21.46875 C 307.453125 21.46875 307.828125 20.894531 308.109375 20.472656 L 307.984375 20.347656 C 307.796875 20.644531 307.53125 21.035156 307.34375 21.035156 C 307.238281 21.035156 307.203125 20.925781 307.203125 20.847656 C 307.203125 20.769531 307.222656 20.660156 307.25 20.550781 L 307.609375 19.273438 C 307.671875 19.085938 307.859375 18.386719 307.859375 18.183594 C 307.859375 17.84375 307.734375 17.6875 307.375 17.6875 C 307.019531 17.6875 306.582031 17.964844 306.207031 18.292969 C 305.851562 18.621094 305.539062 19.027344 305.351562 19.351562 L 305.335938 19.335938 L 305.710938 18.027344 C 305.742188 17.9375 305.757812 17.828125 305.757812 17.78125 C 305.757812 17.71875 305.742188 17.6875 305.679688 17.6875 C 305.601562 17.6875 305.476562 17.734375 305.320312 17.78125 C 305.121094 17.828125 304.792969 17.875 304.449219 17.890625 L 304.417969 18.027344 C 304.761719 18.027344 304.949219 18.027344 304.949219 18.292969 C 304.949219 18.355469 304.933594 18.433594 304.917969 18.496094 L 304.078125 21.390625 Z M 304.746094 21.390625 "/>
<g clip-path="url(#clip2)" clip-rule="nonzero">
<path style=" stroke:none;fill-rule:nonzero;fill:rgb(13.725281%,12.156677%,12.548828%);fill-opacity:1;" d="M 310.375 23.261719 L 310.375 15.460938 L 308.660156 15.460938 L 308.660156 15.695312 L 308.910156 15.695312 C 309.425781 15.695312 309.71875 15.695312 309.71875 16.285156 L 309.71875 22.433594 C 309.71875 23.011719 309.425781 23.011719 308.910156 23.011719 L 308.660156 23.011719 L 308.660156 23.261719 Z M 310.375 23.261719 "/>
</g>
<path style=" stroke:none;fill-rule:nonzero;fill:rgb(13.725281%,12.156677%,12.548828%);fill-opacity:1;" d="M 17.878906 33.207031 L 15.480469 33.207031 L 15.152344 34.222656 L 15.292969 34.253906 C 15.417969 33.863281 15.683594 33.800781 15.945312 33.800781 L 17.175781 33.800781 L 14.59375 36.773438 C 14.5625 36.789062 14.546875 36.820312 14.546875 36.835938 C 14.546875 36.867188 14.609375 36.914062 14.640625 36.914062 C 14.6875 36.914062 14.886719 36.726562 15.121094 36.726562 C 15.777344 36.726562 16.289062 37.472656 16.898438 37.472656 C 17.425781 37.472656 17.628906 37.117188 17.628906 36.820312 C 17.628906 36.648438 17.519531 36.539062 17.363281 36.539062 C 17.144531 36.539062 17.066406 36.695312 17.066406 36.820312 C 17.066406 36.992188 17.191406 37.054688 17.191406 37.164062 C 17.191406 37.242188 17.097656 37.273438 16.992188 37.273438 C 16.445312 37.273438 16.367188 36.277344 15.464844 36.136719 L 17.878906 33.347656 Z M 17.878906 33.207031 "/>
<path style=" stroke:none;fill-rule:nonzero;fill:rgb(13.725281%,12.156677%,12.548828%);fill-opacity:1;" d="M 18.34375 32.289062 L 21.332031 32.289062 L 21.332031 32.585938 L 18.34375 32.585938 Z M 18.34375 32.289062 "/>
<path style=" stroke:none;fill-rule:nonzero;fill:rgb(13.725281%,12.156677%,12.548828%);fill-opacity:1;" d="M 21.800781 33.847656 L 23.855469 33.847656 L 23.855469 33.722656 L 23.730469 33.722656 C 23.1875 33.722656 23.078125 33.628906 23.078125 33.195312 L 23.078125 29.628906 L 23.03125 29.597656 C 22.609375 29.910156 22.144531 30.140625 21.675781 30.390625 L 21.738281 30.5 C 21.894531 30.4375 22.238281 30.21875 22.394531 30.21875 C 22.484375 30.21875 22.578125 30.25 22.578125 30.625 L 22.578125 33.195312 C 22.578125 33.628906 22.472656 33.722656 21.925781 33.722656 L 21.800781 33.722656 Z M 21.800781 33.847656 "/>
<path style=" stroke:none;fill-rule:nonzero;fill:rgb(13.725281%,12.156677%,12.548828%);fill-opacity:1;" d="M 45.351562 3.550781 C 45.507812 2.894531 46.085938 2.351562 46.566406 2.351562 C 47.113281 2.351562 47.285156 2.804688 47.285156 3.285156 C 47.285156 4.25 46.519531 5.574219 45.523438 5.574219 C 45.429688 5.574219 44.917969 5.527344 44.917969 5.324219 C 44.917969 5.277344 44.933594 5.230469 44.949219 5.183594 Z M 48 3.175781 C 48 2.507812 47.625 1.992188 46.910156 1.992188 C 46.304688 1.992188 45.945312 2.273438 45.585938 2.757812 L 45.570312 2.757812 L 45.585938 2.757812 L 46.257812 0.296875 C 46.257812 0.25 46.304688 0.125 46.304688 0.078125 C 46.304688 0.015625 46.269531 0 46.222656 0 C 46.195312 0 46.148438 0.015625 46.101562 0.03125 C 45.835938 0.125 45.398438 0.171875 45.011719 0.203125 L 44.980469 0.328125 C 45.261719 0.390625 45.460938 0.421875 45.460938 0.652344 C 45.460938 0.699219 45.460938 0.761719 45.445312 0.824219 L 44.371094 5.074219 C 44.339844 5.199219 44.324219 5.277344 44.324219 5.324219 C 44.324219 5.636719 44.886719 5.777344 45.382812 5.777344 C 46.722656 5.777344 48 4.515625 48 3.175781 Z M 48 3.175781 "/>
<path style=" stroke:none;fill-rule:nonzero;fill:rgb(13.725281%,12.156677%,12.548828%);fill-opacity:1;" d="M 50.734375 5.574219 C 50.734375 6.382812 50.734375 7.597656 49.957031 7.597656 C 49.179688 7.597656 49.179688 6.382812 49.179688 5.574219 C 49.179688 4.964844 49.179688 3.660156 49.957031 3.660156 C 50.734375 3.660156 50.734375 4.964844 50.734375 5.574219 Z M 48.617188 5.574219 C 48.617188 6.539062 48.851562 7.753906 49.957031 7.753906 C 51.0625 7.753906 51.296875 6.539062 51.296875 5.574219 C 51.296875 4.765625 51.015625 3.503906 49.957031 3.503906 C 48.898438 3.503906 48.617188 4.765625 48.617188 5.574219 Z M 48.617188 5.574219 "/>
<path style=" stroke:none;fill-rule:nonzero;fill:rgb(13.725281%,12.156677%,12.548828%);fill-opacity:1;" d="M 51.917969 7.691406 L 53.976562 7.691406 L 53.976562 7.566406 L 53.851562 7.566406 C 53.304688 7.566406 53.195312 7.472656 53.195312 7.039062 L 53.195312 3.472656 L 53.148438 3.441406 C 52.730469 3.753906 52.261719 3.984375 51.792969 4.234375 L 51.855469 4.34375 C 52.011719 4.28125 52.355469 4.0625 52.511719 4.0625 C 52.605469 4.0625 52.699219 4.09375 52.699219 4.46875 L 52.699219 7.039062 C 52.699219 7.472656 52.589844 7.566406 52.042969 7.566406 L 51.917969 7.566406 Z M 51.917969 7.691406 "/>
<path style=" stroke:none;fill-rule:nonzero;fill:rgb(13.725281%,12.156677%,12.548828%);fill-opacity:1;" d="M 45.351562 47.394531 C 45.507812 46.738281 46.085938 46.191406 46.566406 46.191406 C 47.113281 46.191406 47.285156 46.644531 47.285156 47.128906 C 47.285156 48.09375 46.519531 49.417969 45.523438 49.417969 C 45.429688 49.417969 44.917969 49.371094 44.917969 49.167969 C 44.917969 49.121094 44.933594 49.074219 44.949219 49.027344 Z M 48 47.019531 C 48 46.347656 47.625 45.835938 46.910156 45.835938 C 46.304688 45.835938 45.945312 46.117188 45.585938 46.597656 L 45.570312 46.597656 L 45.585938 46.597656 L 46.257812 44.136719 C 46.257812 44.089844 46.304688 43.96875 46.304688 43.921875 C 46.304688 43.859375 46.269531 43.84375 46.222656 43.84375 C 46.195312 43.84375 46.148438 43.859375 46.101562 43.875 C 45.835938 43.96875 45.398438 44.015625 45.011719 44.042969 L 44.980469 44.167969 C 45.261719 44.230469 45.460938 44.261719 45.460938 44.496094 C 45.460938 44.542969 45.460938 44.605469 45.445312 44.667969 L 44.371094 48.917969 C 44.339844 49.042969 44.324219 49.121094 44.324219 49.167969 C 44.324219 49.476562 44.886719 49.617188 45.382812 49.617188 C 46.722656 49.617188 48 48.355469 48 47.019531 Z M 48 47.019531 "/>
<path style=" stroke:none;fill-rule:nonzero;fill:rgb(13.725281%,12.156677%,12.548828%);fill-opacity:1;" d="M 48.929688 51.535156 L 50.984375 51.535156 L 50.984375 51.410156 L 50.859375 51.410156 C 50.316406 51.410156 50.207031 51.316406 50.207031 50.878906 L 50.207031 47.3125 L 50.160156 47.28125 C 49.738281 47.59375 49.273438 47.828125 48.804688 48.078125 L 48.867188 48.1875 C 49.023438 48.125 49.367188 47.90625 49.523438 47.90625 C 49.617188 47.90625 49.707031 47.9375 49.707031 48.308594 L 49.707031 50.878906 C 49.707031 51.316406 49.597656 51.410156 49.054688 51.410156 L 48.929688 51.410156 Z M 48.929688 51.535156 "/>
<path style=" stroke:none;fill-rule:nonzero;fill:rgb(13.725281%,12.156677%,12.548828%);fill-opacity:1;" d="M 51.917969 51.535156 L 53.976562 51.535156 L 53.976562 51.410156 L 53.851562 51.410156 C 53.304688 51.410156 53.195312 51.316406 53.195312 50.878906 L 53.195312 47.3125 L 53.148438 47.28125 C 52.730469 47.59375 52.261719 47.828125 51.792969 48.078125 L 51.855469 48.1875 C 52.011719 48.125 52.355469 47.90625 52.511719 47.90625 C 52.605469 47.90625 52.699219 47.9375 52.699219 48.308594 L 52.699219 50.878906 C 52.699219 51.316406 52.589844 51.410156 52.042969 51.410156 L 51.917969 51.410156 Z M 51.917969 51.535156 "/>
<path style=" stroke:none;fill-rule:nonzero;fill:rgb(13.725281%,12.156677%,12.548828%);fill-opacity:1;" d="M 45.351562 91.734375 C 45.507812 91.078125 46.085938 90.535156 46.566406 90.535156 C 47.113281 90.535156 47.285156 90.984375 47.285156 91.46875 C 47.285156 92.433594 46.519531 93.757812 45.523438 93.757812 C 45.429688 93.757812 44.917969 93.710938 44.917969 93.507812 C 44.917969 93.460938 44.933594 93.414062 44.949219 93.367188 Z M 48 91.359375 C 48 90.691406 47.625 90.175781 46.910156 90.175781 C 46.304688 90.175781 45.945312 90.457031 45.585938 90.9375 L 45.570312 90.9375 L 45.585938 90.9375 L 46.257812 88.480469 C 46.257812 88.433594 46.304688 88.308594 46.304688 88.261719 C 46.304688 88.199219 46.269531 88.183594 46.222656 88.183594 C 46.195312 88.183594 46.148438 88.199219 46.101562 88.214844 C 45.835938 88.308594 45.398438 88.355469 45.011719 88.386719 L 44.980469 88.511719 C 45.261719 88.574219 45.460938 88.605469 45.460938 88.835938 C 45.460938 88.882812 45.460938 88.945312 45.445312 89.007812 L 44.371094 93.257812 C 44.339844 93.382812 44.324219 93.460938 44.324219 93.507812 C 44.324219 93.820312 44.886719 93.960938 45.382812 93.960938 C 46.722656 93.960938 48 92.699219 48 91.359375 Z M 48 91.359375 "/>
<path style=" stroke:none;fill-rule:nonzero;fill:rgb(13.725281%,12.156677%,12.548828%);fill-opacity:1;" d="M 48.570312 95.875 L 50.96875 95.875 L 51.3125 95.019531 L 51.203125 95.003906 C 51.015625 95.40625 50.84375 95.46875 50.441406 95.46875 L 49.101562 95.46875 L 49.863281 94.644531 C 50.613281 93.851562 51 93.335938 51 92.777344 C 51 92.121094 50.582031 91.6875 49.910156 91.6875 C 49.179688 91.6875 48.679688 92.167969 48.554688 92.871094 L 48.695312 92.898438 C 48.820312 92.480469 49.148438 92.136719 49.617188 92.136719 C 50.207031 92.136719 50.472656 92.480469 50.472656 93.070312 C 50.472656 93.601562 50.082031 94.085938 49.398438 94.863281 L 48.570312 95.765625 Z M 48.570312 95.875 "/>
<path style=" stroke:none;fill-rule:nonzero;fill:rgb(13.725281%,12.156677%,12.548828%);fill-opacity:1;" d="M 51.917969 95.875 L 53.976562 95.875 L 53.976562 95.75 L 53.851562 95.75 C 53.304688 95.75 53.195312 95.65625 53.195312 95.222656 L 53.195312 91.65625 L 53.148438 91.625 C 52.730469 91.9375 52.261719 92.167969 51.792969 92.417969 L 51.855469 92.527344 C 52.011719 92.464844 52.355469 92.246094 52.511719 92.246094 C 52.605469 92.246094 52.699219 92.277344 52.699219 92.652344 L 52.699219 95.222656 C 52.699219 95.65625 52.589844 95.75 52.042969 95.75 L 51.917969 95.75 Z M 51.917969 95.875 "/>
<path style=" stroke:none;fill-rule:nonzero;fill:rgb(13.725281%,12.156677%,12.548828%);fill-opacity:1;" d="M 136.027344 3.550781 C 136.183594 2.894531 136.757812 2.351562 137.242188 2.351562 C 137.785156 2.351562 137.957031 2.804688 137.957031 3.285156 C 137.957031 4.25 137.195312 5.574219 136.199219 5.574219 C 136.105469 5.574219 135.589844 5.527344 135.589844 5.324219 C 135.589844 5.277344 135.605469 5.230469 135.621094 5.183594 Z M 138.675781 3.175781 C 138.675781 2.507812 138.300781 1.992188 137.585938 1.992188 C 136.976562 1.992188 136.617188 2.273438 136.261719 2.757812 L 136.246094 2.757812 L 136.261719 2.757812 L 136.929688 0.296875 C 136.929688 0.25 136.976562 0.125 136.976562 0.078125 C 136.976562 0.015625 136.945312 0 136.898438 0 C 136.867188 0 136.820312 0.015625 136.773438 0.03125 C 136.511719 0.125 136.074219 0.171875 135.683594 0.203125 L 135.652344 0.328125 C 135.933594 0.390625 136.136719 0.421875 136.136719 0.652344 C 136.136719 0.699219 136.136719 0.761719 136.121094 0.824219 L 135.046875 5.074219 C 135.015625 5.199219 135 5.277344 135 5.324219 C 135 5.636719 135.5625 5.777344 136.058594 5.777344 C 137.398438 5.777344 138.675781 4.515625 138.675781 3.175781 Z M 138.675781 3.175781 "/>
<path style=" stroke:none;fill-rule:nonzero;fill:rgb(13.725281%,12.156677%,12.548828%);fill-opacity:1;" d="M 141.410156 5.574219 C 141.410156 6.382812 141.410156 7.597656 140.632812 7.597656 C 139.851562 7.597656 139.851562 6.382812 139.851562 5.574219 C 139.851562 4.964844 139.851562 3.660156 140.632812 3.660156 C 141.410156 3.660156 141.410156 4.964844 141.410156 5.574219 Z M 139.292969 5.574219 C 139.292969 6.539062 139.527344 7.753906 140.632812 7.753906 C 141.738281 7.753906 141.96875 6.539062 141.96875 5.574219 C 141.96875 4.765625 141.691406 3.503906 140.632812 3.503906 C 139.574219 3.503906 139.292969 4.765625 139.292969 5.574219 Z M 139.292969 5.574219 "/>
<path style=" stroke:none;fill-rule:nonzero;fill:rgb(13.725281%,12.156677%,12.548828%);fill-opacity:1;" d="M 142.234375 7.691406 L 144.632812 7.691406 L 144.976562 6.835938 L 144.867188 6.820312 C 144.679688 7.222656 144.507812 7.285156 144.105469 7.285156 L 142.765625 7.285156 L 143.527344 6.460938 C 144.273438 5.667969 144.664062 5.152344 144.664062 4.59375 C 144.664062 3.9375 144.246094 3.503906 143.574219 3.503906 C 142.84375 3.503906 142.34375 3.984375 142.21875 4.6875 L 142.359375 4.71875 C 142.484375 4.296875 142.8125 3.953125 143.277344 3.953125 C 143.871094 3.953125 144.132812 4.296875 144.132812 4.886719 C 144.132812 5.417969 143.746094 5.902344 143.0625 6.679688 L 142.234375 7.582031 Z M 142.234375 7.691406 "/>
<path style=" stroke:none;fill-rule:nonzero;fill:rgb(13.725281%,12.156677%,12.548828%);fill-opacity:1;" d="M 136.027344 47.394531 C 136.183594 46.738281 136.757812 46.191406 137.242188 46.191406 C 137.785156 46.191406 137.957031 46.644531 137.957031 47.128906 C 137.957031 48.09375 137.195312 49.417969 136.199219 49.417969 C 136.105469 49.417969 135.589844 49.371094 135.589844 49.167969 C 135.589844 49.121094 135.605469 49.074219 135.621094 49.027344 Z M 138.675781 47.019531 C 138.675781 46.347656 138.300781 45.835938 137.585938 45.835938 C 136.976562 45.835938 136.617188 46.117188 136.261719 46.597656 L 136.246094 46.597656 L 136.261719 46.597656 L 136.929688 44.136719 C 136.929688 44.089844 136.976562 43.96875 136.976562 43.921875 C 136.976562 43.859375 136.945312 43.84375 136.898438 43.84375 C 136.867188 43.84375 136.820312 43.859375 136.773438 43.875 C 136.511719 43.96875 136.074219 44.015625 135.683594 44.042969 L 135.652344 44.167969 C 135.933594 44.230469 136.136719 44.261719 136.136719 44.496094 C 136.136719 44.542969 136.136719 44.605469 136.121094 44.667969 L 135.046875 48.917969 C 135.015625 49.042969 135 49.121094 135 49.167969 C 135 49.476562 135.5625 49.617188 136.058594 49.617188 C 137.398438 49.617188 138.675781 48.355469 138.675781 47.019531 Z M 138.675781 47.019531 "/>
<path style=" stroke:none;fill-rule:nonzero;fill:rgb(13.725281%,12.156677%,12.548828%);fill-opacity:1;" d="M 139.605469 51.535156 L 141.660156 51.535156 L 141.660156 51.410156 L 141.535156 51.410156 C 140.988281 51.410156 140.882812 51.316406 140.882812 50.878906 L 140.882812 47.3125 L 140.835938 47.28125 C 140.414062 47.59375 139.945312 47.828125 139.480469 48.078125 L 139.542969 48.1875 C 139.699219 48.125 140.039062 47.90625 140.195312 47.90625 C 140.289062 47.90625 140.382812 47.9375 140.382812 48.308594 L 140.382812 50.878906 C 140.382812 51.316406 140.273438 51.410156 139.730469 51.410156 L 139.605469 51.410156 Z M 139.605469 51.535156 "/>
<path style=" stroke:none;fill-rule:nonzero;fill:rgb(13.725281%,12.156677%,12.548828%);fill-opacity:1;" d="M 142.234375 51.535156 L 144.632812 51.535156 L 144.976562 50.675781 L 144.867188 50.660156 C 144.679688 51.066406 144.507812 51.128906 144.105469 51.128906 L 142.765625 51.128906 L 143.527344 50.304688 C 144.273438 49.511719 144.664062 48.996094 144.664062 48.433594 C 144.664062 47.78125 144.246094 47.347656 143.574219 47.347656 C 142.84375 47.347656 142.34375 47.828125 142.21875 48.527344 L 142.359375 48.558594 C 142.484375 48.140625 142.8125 47.796875 143.277344 47.796875 C 143.871094 47.796875 144.132812 48.140625 144.132812 48.730469 C 144.132812 49.261719 143.746094 49.742188 143.0625 50.523438 L 142.234375 51.425781 Z M 142.234375 51.535156 "/>
<path style=" stroke:none;fill-rule:nonzero;fill:rgb(13.725281%,12.156677%,12.548828%);fill-opacity:1;" d="M 136.027344 91.734375 C 136.183594 91.078125 136.757812 90.535156 137.242188 90.535156 C 137.785156 90.535156 137.957031 90.984375 137.957031 91.46875 C 137.957031 92.433594 137.195312 93.757812 136.199219 93.757812 C 136.105469 93.757812 135.589844 93.710938 135.589844 93.507812 C 135.589844 93.460938 135.605469 93.414062 135.621094 93.367188 Z M 138.675781 91.359375 C 138.675781 90.691406 138.300781 90.175781 137.585938 90.175781 C 136.976562 90.175781 136.617188 90.457031 136.261719 90.9375 L 136.246094 90.9375 L 136.261719 90.9375 L 136.929688 88.480469 C 136.929688 88.433594 136.976562 88.308594 136.976562 88.261719 C 136.976562 88.199219 136.945312 88.183594 136.898438 88.183594 C 136.867188 88.183594 136.820312 88.199219 136.773438 88.214844 C 136.511719 88.308594 136.074219 88.355469 135.683594 88.386719 L 135.652344 88.511719 C 135.933594 88.574219 136.136719 88.605469 136.136719 88.835938 C 136.136719 88.882812 136.136719 88.945312 136.121094 89.007812 L 135.046875 93.257812 C 135.015625 93.382812 135 93.460938 135 93.507812 C 135 93.820312 135.5625 93.960938 136.058594 93.960938 C 137.398438 93.960938 138.675781 92.699219 138.675781 91.359375 Z M 138.675781 91.359375 "/>
<path style=" stroke:none;fill-rule:nonzero;fill:rgb(13.725281%,12.156677%,12.548828%);fill-opacity:1;" d="M 139.246094 95.875 L 141.644531 95.875 L 141.988281 95.019531 L 141.878906 95.003906 C 141.691406 95.40625 141.519531 95.46875 141.113281 95.46875 L 139.777344 95.46875 L 140.539062 94.644531 C 141.285156 93.851562 141.675781 93.335938 141.675781 92.777344 C 141.675781 92.121094 141.253906 91.6875 140.585938 91.6875 C 139.851562 91.6875 139.355469 92.167969 139.230469 92.871094 L 139.371094 92.898438 C 139.496094 92.480469 139.820312 92.136719 140.289062 92.136719 C 140.882812 92.136719 141.144531 92.480469 141.144531 93.070312 C 141.144531 93.601562 140.757812 94.085938 140.070312 94.863281 L 139.246094 95.765625 Z M 139.246094 95.875 "/>
<path style=" stroke:none;fill-rule:nonzero;fill:rgb(13.725281%,12.156677%,12.548828%);fill-opacity:1;" d="M 142.234375 95.875 L 144.632812 95.875 L 144.976562 95.019531 L 144.867188 95.003906 C 144.679688 95.40625 144.507812 95.46875 144.105469 95.46875 L 142.765625 95.46875 L 143.527344 94.644531 C 144.273438 93.851562 144.664062 93.335938 144.664062 92.777344 C 144.664062 92.121094 144.246094 91.6875 143.574219 91.6875 C 142.84375 91.6875 142.34375 92.167969 142.21875 92.871094 L 142.359375 92.898438 C 142.484375 92.480469 142.8125 92.136719 143.277344 92.136719 C 143.871094 92.136719 144.132812 92.480469 144.132812 93.070312 C 144.132812 93.601562 143.746094 94.085938 143.0625 94.863281 L 142.234375 95.765625 Z M 142.234375 95.875 "/>
<path style=" stroke:none;fill-rule:nonzero;fill:rgb(13.725281%,12.156677%,12.548828%);fill-opacity:1;" d="M 256.59375 3.550781 C 256.75 2.894531 257.324219 2.351562 257.808594 2.351562 C 258.351562 2.351562 258.523438 2.804688 258.523438 3.285156 C 258.523438 4.25 257.761719 5.574219 256.765625 5.574219 C 256.671875 5.574219 256.160156 5.527344 256.160156 5.324219 C 256.160156 5.277344 256.175781 5.230469 256.1875 5.183594 Z M 259.242188 3.175781 C 259.242188 2.507812 258.867188 1.992188 258.152344 1.992188 C 257.542969 1.992188 257.1875 2.273438 256.828125 2.757812 L 256.8125 2.757812 L 256.828125 2.757812 L 257.496094 0.296875 C 257.496094 0.25 257.542969 0.125 257.542969 0.078125 C 257.542969 0.015625 257.511719 0 257.464844 0 C 257.433594 0 257.386719 0.015625 257.339844 0.03125 C 257.078125 0.125 256.640625 0.171875 256.253906 0.203125 L 256.21875 0.328125 C 256.5 0.390625 256.703125 0.421875 256.703125 0.652344 C 256.703125 0.699219 256.703125 0.761719 256.6875 0.824219 L 255.613281 5.074219 C 255.582031 5.199219 255.566406 5.277344 255.566406 5.324219 C 255.566406 5.636719 256.128906 5.777344 256.625 5.777344 C 257.964844 5.777344 259.242188 4.515625 259.242188 3.175781 Z M 259.242188 3.175781 "/>
<path style=" stroke:none;fill-rule:nonzero;fill:rgb(13.725281%,12.156677%,12.548828%);fill-opacity:1;" d="M 261.976562 5.574219 C 261.976562 6.382812 261.976562 7.597656 261.199219 7.597656 C 260.421875 7.597656 260.421875 6.382812 260.421875 5.574219 C 260.421875 4.964844 260.421875 3.660156 261.199219 3.660156 C 261.976562 3.660156 261.976562 4.964844 261.976562 5.574219 Z M 259.859375 5.574219 C 259.859375 6.539062 260.09375 7.753906 261.199219 7.753906 C 262.304688 7.753906 262.539062 6.539062 262.539062 5.574219 C 262.539062 4.765625 262.257812 3.503906 261.199219 3.503906 C 260.140625 3.503906 259.859375 4.765625 259.859375 5.574219 Z M 259.859375 5.574219 "/>
<path style=" stroke:none;fill-rule:nonzero;fill:rgb(13.725281%,12.156677%,12.548828%);fill-opacity:1;" d="M 264.9375 7.691406 L 265.027344 7.691406 L 267.363281 4.171875 L 267.363281 4.1875 L 266.570312 7.050781 C 266.445312 7.488281 266.382812 7.582031 265.964844 7.582031 L 265.933594 7.691406 L 267.660156 7.691406 L 267.691406 7.582031 C 267.378906 7.566406 267.097656 7.550781 267.097656 7.285156 C 267.097656 7.238281 267.113281 7.175781 267.132812 7.128906 L 267.941406 4.234375 C 268.019531 3.96875 268.082031 3.675781 268.4375 3.675781 L 268.46875 3.566406 L 267.488281 3.566406 L 265.386719 6.695312 L 264.949219 3.566406 L 263.734375 3.566406 L 263.707031 3.675781 C 264.125 3.675781 264.234375 3.785156 264.234375 3.953125 C 264.234375 4.015625 264.21875 4.078125 264.1875 4.15625 L 263.363281 7.144531 C 263.285156 7.441406 263.222656 7.550781 262.773438 7.582031 L 262.738281 7.691406 L 264.078125 7.691406 L 264.109375 7.582031 C 263.722656 7.582031 263.597656 7.425781 263.597656 7.253906 C 263.597656 7.222656 263.597656 7.175781 263.613281 7.144531 L 264.4375 4.1875 L 264.453125 4.1875 Z M 264.9375 7.691406 "/>
<path style=" stroke:none;fill-rule:nonzero;fill:rgb(13.725281%,12.156677%,12.548828%);fill-opacity:1;" d="M 270.5 5.902344 L 270.390625 5.902344 C 270.378906 5.917969 270.378906 5.933594 270.378906 5.960938 C 270.359375 5.996094 270.285156 6.042969 270.222656 6.042969 C 270.175781 6.042969 270.082031 6.007812 269.972656 5.960938 C 269.878906 5.933594 269.753906 5.902344 269.613281 5.902344 C 269.242188 5.902344 268.835938 6.164062 268.835938 6.570312 C 268.835938 6.835938 269.054688 7.144531 269.257812 7.378906 C 269.535156 7.707031 269.628906 7.910156 269.628906 8.125 C 269.628906 8.390625 269.472656 8.59375 269.148438 8.59375 C 268.679688 8.59375 268.554688 8.144531 268.523438 7.769531 L 268.414062 7.769531 L 268.304688 8.75 L 268.398438 8.75 C 268.414062 8.6875 268.460938 8.640625 268.507812 8.640625 C 268.570312 8.640625 268.867188 8.75 269.175781 8.75 C 269.644531 8.75 270.113281 8.453125 270.113281 7.910156 C 270.113281 7.644531 269.988281 7.425781 269.707031 7.082031 C 269.363281 6.648438 269.316406 6.523438 269.316406 6.398438 C 269.316406 6.164062 269.488281 6.054688 269.691406 6.054688 C 270.097656 6.054688 270.253906 6.460938 270.269531 6.804688 L 270.359375 6.804688 Z M 270.5 5.902344 "/>
<path style=" stroke:none;fill-rule:nonzero;fill:rgb(13.725281%,12.156677%,12.548828%);fill-opacity:1;" d="M 256.59375 47.394531 C 256.75 46.738281 257.324219 46.191406 257.808594 46.191406 C 258.351562 46.191406 258.523438 46.644531 258.523438 47.128906 C 258.523438 48.09375 257.761719 49.417969 256.765625 49.417969 C 256.671875 49.417969 256.160156 49.371094 256.160156 49.167969 C 256.160156 49.121094 256.175781 49.074219 256.1875 49.027344 Z M 259.242188 47.019531 C 259.242188 46.347656 258.867188 45.835938 258.152344 45.835938 C 257.542969 45.835938 257.1875 46.117188 256.828125 46.597656 L 256.8125 46.597656 L 256.828125 46.597656 L 257.496094 44.136719 C 257.496094 44.089844 257.542969 43.96875 257.542969 43.921875 C 257.542969 43.859375 257.511719 43.84375 257.464844 43.84375 C 257.433594 43.84375 257.386719 43.859375 257.339844 43.875 C 257.078125 43.96875 256.640625 44.015625 256.253906 44.042969 L 256.21875 44.167969 C 256.5 44.230469 256.703125 44.261719 256.703125 44.496094 C 256.703125 44.542969 256.703125 44.605469 256.6875 44.667969 L 255.613281 48.917969 C 255.582031 49.042969 255.566406 49.121094 255.566406 49.167969 C 255.566406 49.476562 256.128906 49.617188 256.625 49.617188 C 257.964844 49.617188 259.242188 48.355469 259.242188 47.019531 Z M 259.242188 47.019531 "/>
<path style=" stroke:none;fill-rule:nonzero;fill:rgb(13.725281%,12.156677%,12.548828%);fill-opacity:1;" d="M 260.171875 51.535156 L 262.226562 51.535156 L 262.226562 51.410156 L 262.101562 51.410156 C 261.558594 51.410156 261.449219 51.316406 261.449219 50.878906 L 261.449219 47.3125 L 261.402344 47.28125 C 260.980469 47.59375 260.515625 47.828125 260.046875 48.078125 L 260.109375 48.1875 C 260.265625 48.125 260.605469 47.90625 260.761719 47.90625 C 260.855469 47.90625 260.949219 47.9375 260.949219 48.308594 L 260.949219 50.878906 C 260.949219 51.316406 260.839844 51.410156 260.296875 51.410156 L 260.171875 51.410156 Z M 260.171875 51.535156 "/>
<path style=" stroke:none;fill-rule:nonzero;fill:rgb(13.725281%,12.156677%,12.548828%);fill-opacity:1;" d="M 264.9375 51.535156 L 265.027344 51.535156 L 267.363281 48.015625 L 267.363281 48.03125 L 266.570312 50.894531 C 266.445312 51.332031 266.382812 51.425781 265.964844 51.425781 L 265.933594 51.535156 L 267.660156 51.535156 L 267.691406 51.425781 C 267.378906 51.410156 267.097656 51.394531 267.097656 51.128906 C 267.097656 51.082031 267.113281 51.019531 267.132812 50.972656 L 267.941406 48.078125 C 268.019531 47.8125 268.082031 47.515625 268.4375 47.515625 L 268.46875 47.40625 L 267.488281 47.40625 L 265.386719 50.539062 L 264.949219 47.40625 L 263.734375 47.40625 L 263.707031 47.515625 C 264.125 47.515625 264.234375 47.625 264.234375 47.796875 C 264.234375 47.859375 264.21875 47.921875 264.1875 48 L 263.363281 50.988281 C 263.285156 51.285156 263.222656 51.394531 262.773438 51.425781 L 262.738281 51.535156 L 264.078125 51.535156 L 264.109375 51.425781 C 263.722656 51.425781 263.597656 51.269531 263.597656 51.097656 C 263.597656 51.066406 263.597656 51.019531 263.613281 50.988281 L 264.4375 48.03125 L 264.453125 48.03125 Z M 264.9375 51.535156 "/>
<path style=" stroke:none;fill-rule:nonzero;fill:rgb(13.725281%,12.156677%,12.548828%);fill-opacity:1;" d="M 270.5 49.742188 L 270.390625 49.742188 C 270.378906 49.757812 270.378906 49.773438 270.378906 49.804688 C 270.359375 49.835938 270.285156 49.882812 270.222656 49.882812 C 270.175781 49.882812 270.082031 49.851562 269.972656 49.804688 C 269.878906 49.773438 269.753906 49.742188 269.613281 49.742188 C 269.242188 49.742188 268.835938 50.007812 268.835938 50.414062 C 268.835938 50.675781 269.054688 50.988281 269.257812 51.222656 C 269.535156 51.546875 269.628906 51.753906 269.628906 51.96875 C 269.628906 52.234375 269.472656 52.4375 269.148438 52.4375 C 268.679688 52.4375 268.554688 51.984375 268.523438 51.613281 L 268.414062 51.613281 L 268.304688 52.59375 L 268.398438 52.59375 C 268.414062 52.53125 268.460938 52.484375 268.507812 52.484375 C 268.570312 52.484375 268.867188 52.59375 269.175781 52.59375 C 269.644531 52.59375 270.113281 52.296875 270.113281 51.753906 C 270.113281 51.488281 269.988281 51.269531 269.707031 50.925781 C 269.363281 50.492188 269.316406 50.367188 269.316406 50.242188 C 269.316406 50.007812 269.488281 49.898438 269.691406 49.898438 C 270.097656 49.898438 270.253906 50.304688 270.269531 50.644531 L 270.359375 50.644531 Z M 270.5 49.742188 "/>
<path style=" stroke:none;fill-rule:nonzero;fill:rgb(13.725281%,12.156677%,12.548828%);fill-opacity:1;" d="M 256.59375 91.734375 C 256.75 91.078125 257.324219 90.535156 257.808594 90.535156 C 258.351562 90.535156 258.523438 90.984375 258.523438 91.46875 C 258.523438 92.433594 257.761719 93.757812 256.765625 93.757812 C 256.671875 93.757812 256.160156 93.710938 256.160156 93.507812 C 256.160156 93.460938 256.175781 93.414062 256.1875 93.367188 Z M 259.242188 91.359375 C 259.242188 90.691406 258.867188 90.175781 258.152344 90.175781 C 257.542969 90.175781 257.1875 90.457031 256.828125 90.9375 L 256.8125 90.9375 L 256.828125 90.9375 L 257.496094 88.480469 C 257.496094 88.433594 257.542969 88.308594 257.542969 88.261719 C 257.542969 88.199219 257.511719 88.183594 257.464844 88.183594 C 257.433594 88.183594 257.386719 88.199219 257.339844 88.214844 C 257.078125 88.308594 256.640625 88.355469 256.253906 88.386719 L 256.21875 88.511719 C 256.5 88.574219 256.703125 88.605469 256.703125 88.835938 C 256.703125 88.882812 256.703125 88.945312 256.6875 89.007812 L 255.613281 93.257812 C 255.582031 93.382812 255.566406 93.460938 255.566406 93.507812 C 255.566406 93.820312 256.128906 93.960938 256.625 93.960938 C 257.964844 93.960938 259.242188 92.699219 259.242188 91.359375 Z M 259.242188 91.359375 "/>
<path style=" stroke:none;fill-rule:nonzero;fill:rgb(13.725281%,12.156677%,12.548828%);fill-opacity:1;" d="M 259.8125 95.875 L 262.210938 95.875 L 262.554688 95.019531 L 262.445312 95.003906 C 262.257812 95.40625 262.085938 95.46875 261.679688 95.46875 L 260.34375 95.46875 L 261.105469 94.644531 C 261.851562 93.851562 262.242188 93.335938 262.242188 92.777344 C 262.242188 92.121094 261.820312 91.6875 261.152344 91.6875 C 260.421875 91.6875 259.921875 92.167969 259.796875 92.871094 L 259.9375 92.898438 C 260.0625 92.480469 260.390625 92.136719 260.855469 92.136719 C 261.449219 92.136719 261.710938 92.480469 261.710938 93.070312 C 261.710938 93.601562 261.324219 94.085938 260.636719 94.863281 L 259.8125 95.765625 Z M 259.8125 95.875 "/>
<path style=" stroke:none;fill-rule:nonzero;fill:rgb(13.725281%,12.156677%,12.548828%);fill-opacity:1;" d="M 264.9375 95.875 L 265.027344 95.875 L 267.363281 92.355469 L 267.363281 92.371094 L 266.570312 95.234375 C 266.445312 95.671875 266.382812 95.765625 265.964844 95.765625 L 265.933594 95.875 L 267.660156 95.875 L 267.691406 95.765625 C 267.378906 95.75 267.097656 95.734375 267.097656 95.46875 C 267.097656 95.421875 267.113281 95.359375 267.132812 95.3125 L 267.941406 92.417969 C 268.019531 92.152344 268.082031 91.859375 268.4375 91.859375 L 268.46875 91.75 L 267.488281 91.75 L 265.386719 94.878906 L 264.949219 91.75 L 263.734375 91.75 L 263.707031 91.859375 C 264.125 91.859375 264.234375 91.964844 264.234375 92.136719 C 264.234375 92.199219 264.21875 92.261719 264.1875 92.339844 L 263.363281 95.328125 C 263.285156 95.625 263.222656 95.734375 262.773438 95.765625 L 262.738281 95.875 L 264.078125 95.875 L 264.109375 95.765625 C 263.722656 95.765625 263.597656 95.609375 263.597656 95.4375 C 263.597656 95.40625 263.597656 95.359375 263.613281 95.328125 L 264.4375 92.371094 L 264.453125 92.371094 Z M 264.9375 95.875 "/>
<path style=" stroke:none;fill-rule:nonzero;fill:rgb(13.725281%,12.156677%,12.548828%);fill-opacity:1;" d="M 270.5 94.085938 L 270.390625 94.085938 C 270.378906 94.101562 270.378906 94.113281 270.378906 94.144531 C 270.359375 94.175781 270.285156 94.222656 270.222656 94.222656 C 270.175781 94.222656 270.082031 94.191406 269.972656 94.144531 C 269.878906 94.113281 269.753906 94.085938 269.613281 94.085938 C 269.242188 94.085938 268.835938 94.347656 268.835938 94.753906 C 268.835938 95.019531 269.054688 95.328125 269.257812 95.5625 C 269.535156 95.890625 269.628906 96.09375 269.628906 96.308594 C 269.628906 96.574219 269.472656 96.777344 269.148438 96.777344 C 268.679688 96.777344 268.554688 96.324219 268.523438 95.953125 L 268.414062 95.953125 L 268.304688 96.933594 L 268.398438 96.933594 C 268.414062 96.871094 268.460938 96.824219 268.507812 96.824219 C 268.570312 96.824219 268.867188 96.933594 269.175781 96.933594 C 269.644531 96.933594 270.113281 96.636719 270.113281 96.09375 C 270.113281 95.828125 269.988281 95.609375 269.707031 95.265625 C 269.363281 94.832031 269.316406 94.707031 269.316406 94.582031 C 269.316406 94.347656 269.488281 94.238281 269.691406 94.238281 C 270.097656 94.238281 270.253906 94.644531 270.269531 94.988281 L 270.359375 94.988281 Z M 270.5 94.085938 "/>
<path style=" stroke:none;fill-rule:nonzero;fill:rgb(13.725281%,12.156677%,12.548828%);fill-opacity:1;" d="M 17.878906 78.296875 L 15.480469 78.296875 L 15.152344 79.308594 L 15.292969 79.339844 C 15.417969 78.949219 15.683594 78.886719 15.945312 78.886719 L 17.175781 78.886719 L 14.59375 81.863281 C 14.5625 81.878906 14.546875 81.910156 14.546875 81.925781 C 14.546875 81.957031 14.609375 82.003906 14.640625 82.003906 C 14.6875 82.003906 14.886719 81.816406 15.121094 81.816406 C 15.777344 81.816406 16.289062 82.5625 16.898438 82.5625 C 17.425781 82.5625 17.628906 82.203125 17.628906 81.910156 C 17.628906 81.738281 17.519531 81.628906 17.363281 81.628906 C 17.144531 81.628906 17.066406 81.785156 17.066406 81.910156 C 17.066406 82.082031 17.191406 82.144531 17.191406 82.25 C 17.191406 82.328125 17.097656 82.359375 16.992188 82.359375 C 16.445312 82.359375 16.367188 81.363281 15.464844 81.222656 L 17.878906 78.4375 Z M 17.878906 78.296875 "/>
<path style=" stroke:none;fill-rule:nonzero;fill:rgb(13.725281%,12.156677%,12.548828%);fill-opacity:1;" d="M 18.34375 77.378906 L 21.332031 77.378906 L 21.332031 77.675781 L 18.34375 77.675781 Z M 18.34375 77.378906 "/>
<path style=" stroke:none;fill-rule:nonzero;fill:rgb(13.725281%,12.156677%,12.548828%);fill-opacity:1;" d="M 21.800781 78.933594 L 23.855469 78.933594 L 23.855469 78.8125 L 23.730469 78.8125 C 23.1875 78.8125 23.078125 78.71875 23.078125 78.28125 L 23.078125 74.714844 L 23.03125 74.683594 C 22.609375 74.996094 22.144531 75.230469 21.675781 75.480469 L 21.738281 75.585938 C 21.894531 75.527344 22.238281 75.308594 22.394531 75.308594 C 22.484375 75.308594 22.578125 75.339844 22.578125 75.710938 L 22.578125 78.28125 C 22.578125 78.71875 22.472656 78.8125 21.925781 78.8125 L 21.800781 78.8125 Z M 21.800781 78.933594 "/>
<path style=" stroke:none;fill-rule:nonzero;fill:rgb(13.725281%,12.156677%,12.548828%);fill-opacity:1;" d="M 106.808594 33.207031 L 104.410156 33.207031 L 104.082031 34.222656 L 104.222656 34.253906 C 104.347656 33.863281 104.613281 33.800781 104.878906 33.800781 L 106.105469 33.800781 L 103.523438 36.773438 C 103.492188 36.789062 103.476562 36.820312 103.476562 36.835938 C 103.476562 36.867188 103.539062 36.914062 103.570312 36.914062 C 103.617188 36.914062 103.820312 36.726562 104.054688 36.726562 C 104.707031 36.726562 105.21875 37.472656 105.828125 37.472656 C 106.355469 37.472656 106.558594 37.117188 106.558594 36.820312 C 106.558594 36.648438 106.449219 36.539062 106.292969 36.539062 C 106.078125 36.539062 106 36.695312 106 36.820312 C 106 36.992188 106.125 37.054688 106.125 37.164062 C 106.125 37.242188 106.03125 37.273438 105.921875 37.273438 C 105.375 37.273438 105.296875 36.277344 104.394531 36.136719 L 106.808594 33.347656 Z M 106.808594 33.207031 "/>
<path style=" stroke:none;fill-rule:nonzero;fill:rgb(13.725281%,12.156677%,12.548828%);fill-opacity:1;" d="M 107.273438 32.289062 L 110.265625 32.289062 L 110.265625 32.585938 L 107.273438 32.585938 Z M 107.273438 32.289062 "/>
<path style=" stroke:none;fill-rule:nonzero;fill:rgb(13.725281%,12.156677%,12.548828%);fill-opacity:1;" d="M 110.730469 33.847656 L 112.785156 33.847656 L 112.785156 33.722656 L 112.660156 33.722656 C 112.117188 33.722656 112.007812 33.628906 112.007812 33.195312 L 112.007812 29.628906 L 111.960938 29.597656 C 111.539062 29.910156 111.074219 30.140625 110.605469 30.390625 L 110.667969 30.5 C 110.824219 30.4375 111.167969 30.21875 111.324219 30.21875 C 111.417969 30.21875 111.511719 30.25 111.511719 30.625 L 111.511719 33.195312 C 111.511719 33.628906 111.402344 33.722656 110.855469 33.722656 L 110.730469 33.722656 Z M 110.730469 33.847656 "/>
<path style=" stroke:none;fill-rule:nonzero;fill:rgb(13.725281%,12.156677%,12.548828%);fill-opacity:1;" d="M 106.808594 78.296875 L 104.410156 78.296875 L 104.082031 79.308594 L 104.222656 79.339844 C 104.347656 78.949219 104.613281 78.886719 104.878906 78.886719 L 106.105469 78.886719 L 103.523438 81.863281 C 103.492188 81.878906 103.476562 81.910156 103.476562 81.925781 C 103.476562 81.957031 103.539062 82.003906 103.570312 82.003906 C 103.617188 82.003906 103.820312 81.816406 104.054688 81.816406 C 104.707031 81.816406 105.21875 82.5625 105.828125 82.5625 C 106.355469 82.5625 106.558594 82.203125 106.558594 81.910156 C 106.558594 81.738281 106.449219 81.628906 106.292969 81.628906 C 106.078125 81.628906 106 81.785156 106 81.910156 C 106 82.082031 106.125 82.144531 106.125 82.25 C 106.125 82.328125 106.03125 82.359375 105.921875 82.359375 C 105.375 82.359375 105.296875 81.363281 104.394531 81.222656 L 106.808594 78.4375 Z M 106.808594 78.296875 "/>
<path style=" stroke:none;fill-rule:nonzero;fill:rgb(13.725281%,12.156677%,12.548828%);fill-opacity:1;" d="M 107.273438 77.378906 L 110.265625 77.378906 L 110.265625 77.675781 L 107.273438 77.675781 Z M 107.273438 77.378906 "/>
<path style=" stroke:none;fill-rule:nonzero;fill:rgb(13.725281%,12.156677%,12.548828%);fill-opacity:1;" d="M 110.730469 78.933594 L 112.785156 78.933594 L 112.785156 78.8125 L 112.660156 78.8125 C 112.117188 78.8125 112.007812 78.71875 112.007812 78.28125 L 112.007812 74.714844 L 111.960938 74.683594 C 111.539062 74.996094 111.074219 75.230469 110.605469 75.480469 L 110.667969 75.585938 C 110.824219 75.527344 111.167969 75.308594 111.324219 75.308594 C 111.417969 75.308594 111.511719 75.339844 111.511719 75.710938 L 111.511719 78.28125 C 111.511719 78.71875 111.402344 78.8125 110.855469 78.8125 L 110.730469 78.8125 Z M 110.730469 78.933594 "/>
<path style=" stroke:none;fill-rule:nonzero;fill:rgb(13.725281%,12.156677%,12.548828%);fill-opacity:1;" d="M 230.613281 33.207031 L 228.214844 33.207031 L 227.890625 34.222656 L 228.03125 34.253906 C 228.152344 33.863281 228.417969 33.800781 228.683594 33.800781 L 229.914062 33.800781 L 227.328125 36.773438 C 227.296875 36.789062 227.28125 36.820312 227.28125 36.835938 C 227.28125 36.867188 227.34375 36.914062 227.375 36.914062 C 227.421875 36.914062 227.625 36.726562 227.859375 36.726562 C 228.511719 36.726562 229.027344 37.472656 229.632812 37.472656 C 230.160156 37.472656 230.363281 37.117188 230.363281 36.820312 C 230.363281 36.648438 230.253906 36.539062 230.101562 36.539062 C 229.882812 36.539062 229.804688 36.695312 229.804688 36.820312 C 229.804688 36.992188 229.929688 37.054688 229.929688 37.164062 C 229.929688 37.242188 229.835938 37.273438 229.726562 37.273438 C 229.179688 37.273438 229.101562 36.277344 228.199219 36.136719 L 230.613281 33.347656 Z M 230.613281 33.207031 "/>
<path style=" stroke:none;fill-rule:nonzero;fill:rgb(13.725281%,12.156677%,12.548828%);fill-opacity:1;" d="M 231.082031 32.289062 L 234.070312 32.289062 L 234.070312 32.585938 L 231.082031 32.585938 Z M 231.082031 32.289062 "/>
<path style=" stroke:none;fill-rule:nonzero;fill:rgb(13.725281%,12.156677%,12.548828%);fill-opacity:1;" d="M 234.535156 33.847656 L 236.589844 33.847656 L 236.589844 33.722656 L 236.46875 33.722656 C 235.921875 33.722656 235.8125 33.628906 235.8125 33.195312 L 235.8125 29.628906 L 235.765625 29.597656 C 235.347656 29.910156 234.878906 30.140625 234.414062 30.390625 L 234.472656 30.5 C 234.628906 30.4375 234.972656 30.21875 235.128906 30.21875 C 235.222656 30.21875 235.316406 30.25 235.316406 30.625 L 235.316406 33.195312 C 235.316406 33.628906 235.207031 33.722656 234.660156 33.722656 L 234.535156 33.722656 Z M 234.535156 33.847656 "/>
<path style=" stroke:none;fill-rule:nonzero;fill:rgb(13.725281%,12.156677%,12.548828%);fill-opacity:1;" d="M 230.613281 78.296875 L 228.214844 78.296875 L 227.890625 79.308594 L 228.03125 79.339844 C 228.152344 78.949219 228.417969 78.886719 228.683594 78.886719 L 229.914062 78.886719 L 227.328125 81.863281 C 227.296875 81.878906 227.28125 81.910156 227.28125 81.925781 C 227.28125 81.957031 227.34375 82.003906 227.375 82.003906 C 227.421875 82.003906 227.625 81.816406 227.859375 81.816406 C 228.511719 81.816406 229.027344 82.5625 229.632812 82.5625 C 230.160156 82.5625 230.363281 82.203125 230.363281 81.910156 C 230.363281 81.738281 230.253906 81.628906 230.101562 81.628906 C 229.882812 81.628906 229.804688 81.785156 229.804688 81.910156 C 229.804688 82.082031 229.929688 82.144531 229.929688 82.25 C 229.929688 82.328125 229.835938 82.359375 229.726562 82.359375 C 229.179688 82.359375 229.101562 81.363281 228.199219 81.222656 L 230.613281 78.4375 Z M 230.613281 78.296875 "/>
<path style=" stroke:none;fill-rule:nonzero;fill:rgb(13.725281%,12.156677%,12.548828%);fill-opacity:1;" d="M 231.082031 77.378906 L 234.070312 77.378906 L 234.070312 77.675781 L 231.082031 77.675781 Z M 231.082031 77.378906 "/>
<path style=" stroke:none;fill-rule:nonzero;fill:rgb(13.725281%,12.156677%,12.548828%);fill-opacity:1;" d="M 234.535156 78.933594 L 236.589844 78.933594 L 236.589844 78.8125 L 236.46875 78.8125 C 235.921875 78.8125 235.8125 78.71875 235.8125 78.28125 L 235.8125 74.714844 L 235.765625 74.683594 C 235.347656 74.996094 234.878906 75.230469 234.414062 75.480469 L 234.472656 75.585938 C 234.628906 75.527344 234.972656 75.308594 235.128906 75.308594 C 235.222656 75.308594 235.316406 75.339844 235.316406 75.710938 L 235.316406 78.28125 C 235.316406 78.71875 235.207031 78.8125 234.660156 78.8125 L 234.535156 78.8125 Z M 234.535156 78.933594 "/>
<g clip-path="url(#clip3)" clip-rule="nonzero">
<path style=" stroke:none;fill-rule:nonzero;fill:rgb(13.725281%,12.156677%,12.548828%);fill-opacity:1;" d="M 4.144531 21.378906 C 3.972656 21.597656 3.757812 21.941406 3.507812 21.941406 C 3.210938 21.941406 3.085938 21.023438 2.917969 20.210938 C 3.195312 19.855469 3.554688 19.183594 3.851562 19.183594 C 3.960938 19.183594 4.082031 19.261719 4.191406 19.261719 C 4.378906 19.261719 4.503906 19.136719 4.503906 18.96875 C 4.503906 18.765625 4.347656 18.671875 4.160156 18.671875 C 3.617188 18.671875 3.226562 19.433594 2.851562 19.933594 C 2.746094 19.402344 2.636719 18.671875 2.417969 18.671875 C 2.136719 18.671875 1.59375 18.8125 1.28125 18.890625 L 1.25 19.03125 C 1.375 19.015625 1.515625 18.984375 1.671875 18.984375 C 2.105469 18.984375 2.136719 19.730469 2.339844 20.648438 C 2.011719 21.023438 1.59375 21.941406 1.265625 21.941406 C 1.125 21.941406 1.078125 21.785156 0.859375 21.785156 C 0.675781 21.785156 0.535156 21.894531 0.535156 22.097656 C 0.535156 22.28125 0.6875 22.453125 0.921875 22.453125 C 1.484375 22.453125 1.871094 21.628906 2.402344 20.914062 C 2.636719 21.988281 2.636719 22.453125 3.132812 22.453125 C 3.523438 22.453125 3.925781 22.019531 4.238281 21.488281 Z M 4.144531 21.378906 "/>
</g>
<path style=" stroke:none;fill-rule:nonzero;fill:rgb(13.725281%,12.156677%,12.548828%);fill-opacity:1;" d="M 7.902344 24.246094 L 7.902344 23.996094 L 7.652344 23.996094 C 7.140625 23.996094 6.84375 23.996094 6.84375 23.4375 L 6.84375 17.269531 C 6.84375 16.679688 7.140625 16.679688 7.652344 16.679688 L 7.902344 16.679688 L 7.902344 16.445312 L 6.1875 16.445312 L 6.1875 24.246094 Z M 7.902344 24.246094 "/>
<path style=" stroke:none;fill-rule:nonzero;fill:rgb(13.725281%,12.156677%,12.548828%);fill-opacity:1;" d="M 8.890625 22.375 C 9.171875 21.425781 9.402344 20.898438 9.574219 20.585938 C 9.996094 19.839844 10.710938 19.105469 11.117188 19.105469 C 11.195312 19.105469 11.335938 19.167969 11.335938 19.324219 C 11.335938 19.464844 11.195312 19.996094 11.148438 20.152344 L 10.726562 21.691406 C 10.695312 21.816406 10.664062 21.941406 10.664062 22.035156 C 10.664062 22.222656 10.773438 22.453125 11.054688 22.453125 C 11.597656 22.453125 11.972656 21.878906 12.253906 21.457031 L 12.128906 21.332031 C 11.941406 21.628906 11.675781 22.019531 11.492188 22.019531 C 11.382812 22.019531 11.351562 21.910156 11.351562 21.832031 C 11.351562 21.753906 11.367188 21.644531 11.398438 21.535156 L 11.753906 20.257812 C 11.816406 20.074219 12.003906 19.371094 12.003906 19.167969 C 12.003906 18.828125 11.878906 18.671875 11.519531 18.671875 C 11.164062 18.671875 10.726562 18.953125 10.351562 19.277344 C 9.996094 19.605469 9.683594 20.011719 9.496094 20.335938 L 9.480469 20.320312 L 9.855469 19.015625 C 9.886719 18.921875 9.902344 18.8125 9.902344 18.765625 C 9.902344 18.703125 9.886719 18.671875 9.824219 18.671875 C 9.746094 18.671875 9.621094 18.71875 9.464844 18.765625 C 9.265625 18.8125 8.9375 18.859375 8.59375 18.875 L 8.5625 19.015625 C 8.90625 19.015625 9.09375 19.015625 9.09375 19.277344 C 9.09375 19.339844 9.078125 19.417969 9.0625 19.480469 L 8.222656 22.375 Z M 8.890625 22.375 "/>
<path style=" stroke:none;fill-rule:nonzero;fill:rgb(13.725281%,12.156677%,12.548828%);fill-opacity:1;" d="M 14.519531 24.246094 L 14.519531 16.445312 L 12.804688 16.445312 L 12.804688 16.679688 L 13.054688 16.679688 C 13.570312 16.679688 13.863281 16.679688 13.863281 17.269531 L 13.863281 23.417969 C 13.863281 23.996094 13.570312 23.996094 13.054688 23.996094 L 12.804688 23.996094 L 12.804688 24.246094 Z M 14.519531 24.246094 "/>
<path style="fill:none;stroke-width:0.5;stroke-linecap:butt;stroke-linejoin:miter;stroke:rgb(13.725281%,12.156677%,12.548828%);stroke-opacity:1;stroke-miterlimit:4;" d="M 27.004448 11.22377 L 2.628129 11.22377 " transform="matrix(0.99642,0,0,0.99642,0.533622,0)"/>
<path style=" stroke:none;fill-rule:nonzero;fill:rgb(100%,100%,100%);fill-opacity:1;" d="M 3.152344 12.730469 C 4.007812 12.730469 4.703125 12.035156 4.703125 11.183594 C 4.703125 10.324219 4.007812 9.628906 3.152344 9.628906 C 2.296875 9.628906 1.605469 10.324219 1.605469 11.183594 C 1.605469 12.035156 2.296875 12.730469 3.152344 12.730469 "/>
<g clip-path="url(#clip4)" clip-rule="nonzero">
<path style="fill:none;stroke-width:0.5;stroke-linecap:butt;stroke-linejoin:miter;stroke:rgb(13.725281%,12.156677%,12.548828%);stroke-opacity:1;stroke-miterlimit:4;" d="M 2.628129 12.776202 C 3.486671 12.776202 4.184482 12.078391 4.184482 11.22377 C 4.184482 10.361307 3.486671 9.663497 2.628129 9.663497 C 1.769587 9.663497 1.075697 10.361307 1.075697 11.22377 C 1.075697 12.078391 1.769587 12.776202 2.628129 12.776202 Z M 2.628129 12.776202 " transform="matrix(0.99642,0,0,0.99642,0.533622,0)"/>
</g>
<path style=" stroke:none;fill-rule:nonzero;fill:rgb(13.725281%,12.156677%,12.548828%);fill-opacity:1;" d="M 13.191406 11.175781 L 12.234375 9.59375 L 12.285156 9.558594 L 14.859375 10.582031 C 15.761719 10.777344 16.65625 10.976562 17.554688 11.175781 C 16.65625 11.371094 15.761719 11.566406 14.859375 11.765625 L 12.285156 12.789062 L 12.234375 12.761719 L 13.191406 11.175781 "/>
<path style="fill:none;stroke-width:0.5;stroke-linecap:butt;stroke-linejoin:miter;stroke:rgb(13.725281%,12.156677%,12.548828%);stroke-opacity:1;stroke-miterlimit:4;" d="M 72.130823 11.22377 L 27.004448 11.22377 M 116.253605 11.22377 L 72.130823 11.22377 " transform="matrix(0.99642,0,0,0.99642,0.533622,0)"/>
<path style=" stroke:none;fill-rule:nonzero;fill:rgb(13.725281%,12.156677%,12.548828%);fill-opacity:1;" d="M 94.859375 11.175781 L 93.898438 9.59375 L 93.953125 9.558594 L 96.527344 10.582031 C 97.421875 10.777344 98.324219 10.976562 99.21875 11.175781 C 98.324219 11.371094 97.421875 11.566406 96.527344 11.765625 L 93.953125 12.789062 L 93.898438 12.761719 L 94.859375 11.175781 "/>
<path style=" stroke:none;fill-rule:nonzero;fill:rgb(13.725281%,12.156677%,12.548828%);fill-opacity:1;" d="M 139.074219 11.175781 L 138.113281 9.59375 L 138.167969 9.558594 L 140.746094 10.582031 C 141.640625 10.777344 142.539062 10.976562 143.433594 11.175781 C 142.539062 11.371094 141.640625 11.566406 140.746094 11.765625 L 138.167969 12.789062 L 138.113281 12.761719 L 139.074219 11.175781 "/>
<path style="fill:none;stroke-width:0.5;stroke-linecap:butt;stroke-linejoin:miter;stroke:rgb(13.725281%,12.156677%,12.548828%);stroke-opacity:1;stroke-miterlimit:4;" d="M 163.167629 55.526885 L 116.253605 55.526885 M 72.005374 55.526885 L 26.878999 55.526885 " transform="matrix(0.99642,0,0,0.99642,0.533622,0)"/>
<path style=" stroke:none;fill-rule:nonzero;fill:rgb(13.725281%,12.156677%,12.548828%);fill-opacity:1;" d="M 138.738281 55.320312 L 137.78125 53.742188 L 137.832031 53.703125 L 140.410156 54.730469 C 141.308594 54.921875 142.203125 55.121094 143.101562 55.320312 C 142.203125 55.519531 141.308594 55.714844 140.410156 55.914062 L 137.832031 56.9375 L 137.78125 56.910156 L 138.738281 55.320312 "/>
<path style=" stroke:none;fill-rule:nonzero;fill:rgb(13.725281%,12.156677%,12.548828%);fill-opacity:1;" d="M 169.628906 11.175781 L 168.671875 9.59375 L 168.722656 9.558594 L 171.300781 10.582031 C 172.199219 10.777344 173.09375 10.976562 173.992188 11.175781 C 173.09375 11.371094 172.199219 11.566406 171.300781 11.765625 L 168.722656 12.789062 L 168.671875 12.761719 L 169.628906 11.175781 "/>
<path style="fill:none;stroke-width:0.5;stroke-linecap:butt;stroke-linejoin:miter;stroke:rgb(13.725281%,12.156677%,12.548828%);stroke-opacity:1;stroke-miterlimit:4;" d="M 309.127597 11.22377 L 285.46085 11.22377 " transform="matrix(0.99642,0,0,0.99642,0.533622,0)"/>
<g clip-path="url(#clip5)" clip-rule="nonzero">
<path style=" stroke:none;fill-rule:nonzero;fill:rgb(100%,100%,100%);fill-opacity:1;" d="M 308.554688 12.730469 C 309.410156 12.730469 310.105469 12.035156 310.105469 11.183594 C 310.105469 10.324219 309.410156 9.628906 308.554688 9.628906 C 307.699219 9.628906 307.007812 10.324219 307.007812 11.183594 C 307.007812 12.035156 307.699219 12.730469 308.554688 12.730469 "/>
</g>
<g clip-path="url(#clip6)" clip-rule="nonzero">
<path style="fill:none;stroke-width:0.5;stroke-linecap:butt;stroke-linejoin:miter;stroke:rgb(13.725281%,12.156677%,12.548828%);stroke-opacity:1;stroke-miterlimit:4;" d="M 309.127597 12.776202 C 309.986139 12.776202 310.683949 12.078391 310.683949 11.22377 C 310.683949 10.361307 309.986139 9.663497 309.127597 9.663497 C 308.269055 9.663497 307.575165 10.361307 307.575165 11.22377 C 307.575165 12.078391 308.269055 12.776202 309.127597 12.776202 Z M 309.127597 12.776202 " transform="matrix(0.99642,0,0,0.99642,0.533622,0)"/>
</g>
<path style=" stroke:none;fill-rule:nonzero;fill:rgb(13.725281%,12.156677%,12.548828%);fill-opacity:1;" d="M 294.183594 11.175781 L 293.222656 9.59375 L 293.273438 9.558594 L 295.851562 10.582031 C 296.75 10.777344 297.644531 10.976562 298.546875 11.175781 C 297.644531 11.371094 296.75 11.566406 295.851562 11.765625 L 293.273438 12.789062 L 293.222656 12.761719 L 294.183594 11.175781 "/>
<path style=" stroke:none;fill-rule:nonzero;fill:rgb(13.725281%,12.156677%,12.548828%);fill-opacity:1;" d="M 27.359375 33.070312 L 25.78125 32.109375 L 25.742188 32.160156 L 26.765625 34.738281 C 26.964844 35.632812 27.164062 36.53125 27.359375 37.429688 C 27.558594 36.53125 27.753906 35.632812 27.957031 34.738281 L 28.972656 32.160156 L 28.953125 32.109375 L 27.359375 33.070312 "/>
<path style="fill:none;stroke-width:0.5;stroke-linecap:butt;stroke-linejoin:miter;stroke:rgb(13.725281%,12.156677%,12.548828%);stroke-opacity:1;stroke-miterlimit:4;" d="M 72.130823 55.526885 L 72.130823 11.22377 " transform="matrix(0.99642,0,0,0.99642,0.533622,0)"/>
<path style=" stroke:none;fill-rule:nonzero;fill:rgb(13.725281%,12.156677%,12.548828%);fill-opacity:1;" d="M 72.449219 36.472656 L 70.871094 37.429688 L 70.832031 37.378906 L 71.855469 34.800781 C 72.054688 33.902344 72.253906 33.007812 72.449219 32.109375 C 72.644531 33.007812 72.84375 33.902344 73.042969 34.800781 L 74.0625 37.378906 L 74.039062 37.429688 L 72.449219 36.472656 "/>
<path style="fill:none;stroke-width:0.5;stroke-linecap:butt;stroke-linejoin:miter;stroke:rgb(13.725281%,12.156677%,12.548828%);stroke-opacity:1;stroke-miterlimit:4;" d="M 116.253605 55.526885 L 116.253605 11.22377 " transform="matrix(0.99642,0,0,0.99642,0.533622,0)"/>
<path style=" stroke:none;fill-rule:nonzero;fill:rgb(13.725281%,12.156677%,12.548828%);fill-opacity:1;" d="M 116.375 33.070312 L 114.796875 32.109375 L 114.761719 32.160156 L 115.785156 34.738281 C 115.976562 35.632812 116.175781 36.53125 116.375 37.429688 C 116.574219 36.53125 116.769531 35.632812 116.96875 34.738281 L 117.992188 32.160156 L 117.964844 32.109375 L 116.375 33.070312 "/>
<path style="fill:none;stroke-width:0.5;stroke-linecap:butt;stroke-linejoin:miter;stroke:rgb(13.725281%,12.156677%,12.548828%);stroke-opacity:1;stroke-miterlimit:4;" d="M 163.167629 55.526885 L 163.167629 11.22377 " transform="matrix(0.99642,0,0,0.99642,0.533622,0)"/>
<path style=" stroke:none;fill-rule:nonzero;fill:rgb(13.725281%,12.156677%,12.548828%);fill-opacity:1;" d="M 163.164062 36.472656 L 161.585938 37.429688 L 161.550781 37.378906 L 162.574219 34.800781 C 162.769531 33.902344 162.964844 33.007812 163.164062 32.109375 C 163.363281 33.007812 163.558594 33.902344 163.757812 34.800781 L 164.78125 37.378906 L 164.753906 37.429688 L 163.164062 36.472656 "/>
<path style="fill:none;stroke-width:0.5;stroke-linecap:butt;stroke-linejoin:miter;stroke:rgb(13.725281%,12.156677%,12.548828%);stroke-opacity:1;stroke-miterlimit:4;" d="M 240.459924 55.526885 L 240.459924 11.22377 " transform="matrix(0.99642,0,0,0.99642,0.533622,0)"/>
<path style=" stroke:none;fill-rule:nonzero;fill:rgb(13.725281%,12.156677%,12.548828%);fill-opacity:1;" d="M 240.179688 33.070312 L 238.601562 32.109375 L 238.566406 32.160156 L 239.589844 34.738281 C 239.78125 35.632812 239.984375 36.53125 240.179688 37.429688 C 240.378906 36.53125 240.574219 35.632812 240.773438 34.738281 L 241.796875 32.160156 L 241.769531 32.109375 L 240.179688 33.070312 "/>
<path style=" stroke:none;fill-rule:nonzero;fill:rgb(13.725281%,12.156677%,12.548828%);fill-opacity:1;" d="M 285.019531 36.472656 L 283.4375 37.429688 L 283.40625 37.378906 L 284.429688 34.800781 C 284.621094 33.902344 284.820312 33.007812 285.019531 32.109375 C 285.21875 33.007812 285.414062 33.902344 285.613281 34.800781 L 286.636719 37.378906 L 286.609375 37.429688 L 285.019531 36.472656 "/>
<path style=" stroke:none;fill-rule:nonzero;fill:rgb(100%,100%,100%);fill-opacity:1;" d="M 27.441406 12.730469 C 28.296875 12.730469 28.992188 12.035156 28.992188 11.183594 C 28.992188 10.324219 28.296875 9.628906 27.441406 9.628906 C 26.585938 9.628906 25.890625 10.324219 25.890625 11.183594 C 25.890625 12.035156 26.585938 12.730469 27.441406 12.730469 "/>
<path style="fill:none;stroke-width:0.5;stroke-linecap:butt;stroke-linejoin:miter;stroke:rgb(13.725281%,12.156677%,12.548828%);stroke-opacity:1;stroke-miterlimit:4;" d="M 27.004448 12.776202 C 27.86299 12.776202 28.5608 12.078391 28.5608 11.22377 C 28.5608 10.361307 27.86299 9.663497 27.004448 9.663497 C 26.145906 9.663497 25.448095 10.361307 25.448095 11.22377 C 25.448095 12.078391 26.145906 12.776202 27.004448 12.776202 Z M 27.004448 12.776202 " transform="matrix(0.99642,0,0,0.99642,0.533622,0)"/>
<path style=" stroke:none;fill-rule:nonzero;fill:rgb(100%,100%,100%);fill-opacity:1;" d="M 72.40625 12.730469 C 73.261719 12.730469 73.953125 12.035156 73.953125 11.183594 C 73.953125 10.324219 73.261719 9.628906 72.40625 9.628906 C 71.546875 9.628906 70.855469 10.324219 70.855469 11.183594 C 70.855469 12.035156 71.546875 12.730469 72.40625 12.730469 "/>
<path style="fill:none;stroke-width:0.5;stroke-linecap:butt;stroke-linejoin:miter;stroke:rgb(13.725281%,12.156677%,12.548828%);stroke-opacity:1;stroke-miterlimit:4;" d="M 72.130823 12.776202 C 72.989365 12.776202 73.683255 12.078391 73.683255 11.22377 C 73.683255 10.361307 72.989365 9.663497 72.130823 9.663497 C 71.26836 9.663497 70.57447 10.361307 70.57447 11.22377 C 70.57447 12.078391 71.26836 12.776202 72.130823 12.776202 Z M 72.130823 12.776202 " transform="matrix(0.99642,0,0,0.99642,0.533622,0)"/>
<path style=" stroke:none;fill-rule:nonzero;fill:rgb(100%,100%,100%);fill-opacity:1;" d="M 116.371094 12.730469 C 117.226562 12.730469 117.921875 12.035156 117.921875 11.183594 C 117.921875 10.324219 117.226562 9.628906 116.371094 9.628906 C 115.515625 9.628906 114.820312 10.324219 114.820312 11.183594 C 114.820312 12.035156 115.515625 12.730469 116.371094 12.730469 "/>
<path style="fill:none;stroke-width:0.5;stroke-linecap:butt;stroke-linejoin:miter;stroke:rgb(13.725281%,12.156677%,12.548828%);stroke-opacity:1;stroke-miterlimit:4;" d="M 116.253605 12.776202 C 117.112147 12.776202 117.809957 12.078391 117.809957 11.22377 C 117.809957 10.361307 117.112147 9.663497 116.253605 9.663497 C 115.395063 9.663497 114.697253 10.361307 114.697253 11.22377 C 114.697253 12.078391 115.395063 12.776202 116.253605 12.776202 Z M 116.253605 12.776202 " transform="matrix(0.99642,0,0,0.99642,0.533622,0)"/>
<path style=" stroke:none;fill-rule:nonzero;fill:rgb(100%,100%,100%);fill-opacity:1;" d="M 163.117188 12.730469 C 163.972656 12.730469 164.671875 12.035156 164.671875 11.183594 C 164.671875 10.324219 163.972656 9.628906 163.117188 9.628906 C 162.261719 9.628906 161.566406 10.324219 161.566406 11.183594 C 161.566406 12.035156 162.261719 12.730469 163.117188 12.730469 "/>
<path style="fill:none;stroke-width:0.5;stroke-linecap:butt;stroke-linejoin:miter;stroke:rgb(13.725281%,12.156677%,12.548828%);stroke-opacity:1;stroke-miterlimit:4;" d="M 163.167629 12.776202 C 164.026171 12.776202 164.727902 12.078391 164.727902 11.22377 C 164.727902 10.361307 164.026171 9.663497 163.167629 9.663497 C 162.309087 9.663497 161.611277 10.361307 161.611277 11.22377 C 161.611277 12.078391 162.309087 12.776202 163.167629 12.776202 Z M 285.46085 11.22377 L 240.459924 11.22377 " transform="matrix(0.99642,0,0,0.99642,0.533622,0)"/>
<path style=" stroke:none;fill-rule:nonzero;fill:rgb(13.725281%,12.156677%,12.548828%);fill-opacity:1;" d="M 261.964844 11.183594 L 261.003906 9.601562 L 261.058594 9.566406 L 263.636719 10.589844 C 264.535156 10.785156 265.429688 10.984375 266.328125 11.183594 C 265.429688 11.378906 264.535156 11.574219 263.636719 11.773438 L 261.058594 12.796875 L 261.003906 12.769531 L 261.964844 11.183594 "/>
<path style=" stroke:none;fill-rule:nonzero;fill:rgb(13.725281%,12.156677%,12.548828%);fill-opacity:1;" d="M 261.964844 55.234375 L 261.003906 53.65625 L 261.058594 53.621094 L 263.636719 54.644531 C 264.535156 54.839844 265.429688 55.035156 266.328125 55.234375 C 265.429688 55.433594 264.535156 55.628906 263.636719 55.828125 L 261.058594 56.851562 L 261.003906 56.824219 L 261.964844 55.234375 "/>
<g clip-path="url(#clip7)" clip-rule="nonzero">
<path style=" stroke:none;fill-rule:nonzero;fill:rgb(13.725281%,12.156677%,12.548828%);fill-opacity:1;" d="M 261.964844 99.410156 L 261.003906 97.832031 L 261.058594 97.792969 L 263.636719 98.816406 C 264.535156 99.015625 265.429688 99.210938 266.328125 99.410156 C 265.429688 99.605469 264.535156 99.804688 263.636719 100 L 261.058594 101.023438 L 261.003906 100.996094 L 261.964844 99.410156 "/>
</g>
<path style=" stroke:none;fill-rule:nonzero;fill:rgb(13.725281%,12.156677%,12.548828%);fill-opacity:1;" d="M 48.5625 11.183594 L 47.605469 9.601562 L 47.65625 9.566406 L 50.234375 10.589844 C 51.132812 10.785156 52.027344 10.984375 52.925781 11.183594 C 52.027344 11.378906 51.132812 11.574219 50.234375 11.773438 L 47.65625 12.796875 L 47.605469 12.769531 L 48.5625 11.183594 "/>
<path style=" stroke:none;fill-rule:nonzero;fill:rgb(13.725281%,12.156677%,12.548828%);fill-opacity:1;" d="M 48.5625 55.234375 L 47.605469 53.65625 L 47.65625 53.621094 L 50.234375 54.644531 C 51.132812 54.839844 52.027344 55.035156 52.925781 55.234375 C 52.027344 55.433594 51.132812 55.628906 50.234375 55.828125 L 47.65625 56.851562 L 47.605469 56.824219 L 48.5625 55.234375 "/>
<g clip-path="url(#clip8)" clip-rule="nonzero">
<path style=" stroke:none;fill-rule:nonzero;fill:rgb(13.725281%,12.156677%,12.548828%);fill-opacity:1;" d="M 48.5625 99.410156 L 47.605469 97.832031 L 47.65625 97.792969 L 50.234375 98.816406 C 51.132812 99.015625 52.027344 99.210938 52.925781 99.410156 C 52.027344 99.605469 51.132812 99.804688 50.234375 100 L 47.65625 101.023438 L 47.605469 100.996094 L 48.5625 99.410156 "/>
</g>
<path style="fill:none;stroke-width:0.5;stroke-linecap:butt;stroke-linejoin:miter;stroke:rgb(13.725281%,12.156677%,12.548828%);stroke-opacity:1;stroke-miterlimit:4;" d="M 285.46085 55.526885 L 240.459924 55.526885 M 285.46085 55.526885 L 285.46085 11.22377 " transform="matrix(0.99642,0,0,0.99642,0.533622,0)"/>
<path style=" stroke:none;fill-rule:nonzero;fill:rgb(100%,100%,100%);fill-opacity:1;" d="M 284.972656 12.730469 C 285.828125 12.730469 286.523438 12.035156 286.523438 11.183594 C 286.523438 10.324219 285.828125 9.628906 284.972656 9.628906 C 284.117188 9.628906 283.421875 10.324219 283.421875 11.183594 C 283.421875 12.035156 284.117188 12.730469 284.972656 12.730469 "/>
<g clip-path="url(#clip9)" clip-rule="nonzero">
<path style="fill:none;stroke-width:0.5;stroke-linecap:butt;stroke-linejoin:miter;stroke:rgb(13.725281%,12.156677%,12.548828%);stroke-opacity:1;stroke-miterlimit:4;" d="M 285.46085 12.776202 C 286.319392 12.776202 287.017202 12.078391 287.017202 11.22377 C 287.017202 10.361307 286.319392 9.663497 285.46085 9.663497 C 284.602308 9.663497 283.904498 10.361307 283.904498 11.22377 C 283.904498 12.078391 284.602308 12.776202 285.46085 12.776202 Z M 26.878999 99.833921 L 26.878999 55.526885 M 163.167629 99.833921 L 116.253605 99.833921 M 72.005374 99.833921 L 26.878999 99.833921 " transform="matrix(0.99642,0,0,0.99642,0.533622,0)"/>
</g>
<g clip-path="url(#clip10)" clip-rule="nonzero">
<path style=" stroke:none;fill-rule:nonzero;fill:rgb(13.725281%,12.156677%,12.548828%);fill-opacity:1;" d="M 138.90625 99.464844 L 137.945312 97.886719 L 138 97.851562 L 140.578125 98.875 C 141.476562 99.074219 142.371094 99.273438 143.269531 99.464844 C 142.371094 99.664062 141.476562 99.863281 140.578125 100.058594 L 138 101.082031 L 137.945312 101.054688 L 138.90625 99.464844 "/>
</g>
<path style=" stroke:none;fill-rule:nonzero;fill:rgb(13.725281%,12.156677%,12.548828%);fill-opacity:1;" d="M 27.359375 77.214844 L 25.78125 76.253906 L 25.742188 76.308594 L 26.765625 78.882812 C 26.964844 79.78125 27.164062 80.679688 27.359375 81.578125 C 27.558594 80.679688 27.753906 79.78125 27.957031 78.882812 L 28.972656 76.308594 L 28.953125 76.253906 L 27.359375 77.214844 "/>
<path style="fill:none;stroke-width:0.5;stroke-linecap:butt;stroke-linejoin:miter;stroke:rgb(13.725281%,12.156677%,12.548828%);stroke-opacity:1;stroke-miterlimit:4;" d="M 72.130823 99.833921 L 72.130823 55.526885 " transform="matrix(0.99642,0,0,0.99642,0.533622,0)"/>
<path style=" stroke:none;fill-rule:nonzero;fill:rgb(13.725281%,12.156677%,12.548828%);fill-opacity:1;" d="M 72.449219 80.617188 L 70.871094 81.578125 L 70.832031 81.523438 L 71.855469 78.945312 C 72.054688 78.046875 72.253906 77.152344 72.449219 76.253906 C 72.644531 77.152344 72.84375 78.046875 73.042969 78.945312 L 74.0625 81.523438 L 74.039062 81.578125 L 72.449219 80.617188 "/>
<path style="fill:none;stroke-width:0.5;stroke-linecap:butt;stroke-linejoin:miter;stroke:rgb(13.725281%,12.156677%,12.548828%);stroke-opacity:1;stroke-miterlimit:4;" d="M 116.253605 99.833921 L 116.253605 55.526885 " transform="matrix(0.99642,0,0,0.99642,0.533622,0)"/>
<path style=" stroke:none;fill-rule:nonzero;fill:rgb(13.725281%,12.156677%,12.548828%);fill-opacity:1;" d="M 116.375 77.214844 L 114.796875 76.253906 L 114.761719 76.308594 L 115.785156 78.882812 C 115.976562 79.78125 116.175781 80.679688 116.375 81.578125 C 116.574219 80.679688 116.769531 79.78125 116.96875 78.882812 L 117.992188 76.308594 L 117.964844 76.253906 L 116.375 77.214844 "/>
<path style="fill:none;stroke-width:0.5;stroke-linecap:butt;stroke-linejoin:miter;stroke:rgb(13.725281%,12.156677%,12.548828%);stroke-opacity:1;stroke-miterlimit:4;" d="M 163.167629 99.833921 L 163.167629 55.526885 " transform="matrix(0.99642,0,0,0.99642,0.533622,0)"/>
<path style=" stroke:none;fill-rule:nonzero;fill:rgb(13.725281%,12.156677%,12.548828%);fill-opacity:1;" d="M 163.164062 80.617188 L 161.585938 81.578125 L 161.550781 81.523438 L 162.574219 78.945312 C 162.769531 78.046875 162.964844 77.152344 163.164062 76.253906 C 163.363281 77.152344 163.558594 78.046875 163.757812 78.945312 L 164.78125 81.523438 L 164.753906 81.578125 L 163.164062 80.617188 "/>
<path style="fill:none;stroke-width:0.5;stroke-linecap:butt;stroke-linejoin:miter;stroke:rgb(13.725281%,12.156677%,12.548828%);stroke-opacity:1;stroke-miterlimit:4;" d="M 240.459924 99.833921 L 240.459924 55.526885 " transform="matrix(0.99642,0,0,0.99642,0.533622,0)"/>
<path style=" stroke:none;fill-rule:nonzero;fill:rgb(13.725281%,12.156677%,12.548828%);fill-opacity:1;" d="M 240.179688 77.214844 L 238.601562 76.253906 L 238.566406 76.308594 L 239.589844 78.882812 C 239.78125 79.78125 239.984375 80.679688 240.179688 81.578125 C 240.378906 80.679688 240.574219 79.78125 240.773438 78.882812 L 241.796875 76.308594 L 241.769531 76.253906 L 240.179688 77.214844 "/>
<path style=" stroke:none;fill-rule:nonzero;fill:rgb(13.725281%,12.156677%,12.548828%);fill-opacity:1;" d="M 285.019531 80.617188 L 283.4375 81.578125 L 283.40625 81.523438 L 284.429688 78.945312 C 284.621094 78.046875 284.820312 77.152344 285.019531 76.253906 C 285.21875 77.152344 285.414062 78.046875 285.613281 78.945312 L 286.636719 81.523438 L 286.609375 81.578125 L 285.019531 80.617188 "/>
<path style="fill:none;stroke-width:0.5;stroke-linecap:butt;stroke-linejoin:miter;stroke:rgb(13.725281%,12.156677%,12.548828%);stroke-opacity:1;stroke-miterlimit:4;" d="M 285.46085 99.833921 L 240.459924 99.833921 M 285.46085 99.833921 L 285.46085 55.526885 " transform="matrix(0.99642,0,0,0.99642,0.533622,0)"/>
<g clip-path="url(#clip11)" clip-rule="nonzero">
<path style=" stroke:none;fill-rule:nonzero;fill:rgb(100%,100%,100%);fill-opacity:1;" d="M 27.316406 101.023438 C 28.171875 101.023438 28.867188 100.332031 28.867188 99.476562 C 28.867188 98.617188 28.171875 97.925781 27.316406 97.925781 C 26.460938 97.925781 25.765625 98.617188 25.765625 99.476562 C 25.765625 100.332031 26.460938 101.023438 27.316406 101.023438 "/>
</g>
<g clip-path="url(#clip12)" clip-rule="nonzero">
<path style="fill:none;stroke-width:0.5;stroke-linecap:butt;stroke-linejoin:miter;stroke:rgb(13.725281%,12.156677%,12.548828%);stroke-opacity:1;stroke-miterlimit:4;" d="M 26.878999 101.386353 C 27.737541 101.386353 28.435351 100.692463 28.435351 99.833921 C 28.435351 98.971459 27.737541 98.277569 26.878999 98.277569 C 26.020457 98.277569 25.322646 98.971459 25.322646 99.833921 C 25.322646 100.692463 26.020457 101.386353 26.878999 101.386353 Z M 26.878999 101.386353 " transform="matrix(0.99642,0,0,0.99642,0.533622,0)"/>
</g>
<g clip-path="url(#clip13)" clip-rule="nonzero">
<path style=" stroke:none;fill-rule:nonzero;fill:rgb(100%,100%,100%);fill-opacity:1;" d="M 116.371094 101.023438 C 117.226562 101.023438 117.921875 100.332031 117.921875 99.476562 C 117.921875 98.617188 117.226562 97.925781 116.371094 97.925781 C 115.515625 97.925781 114.820312 98.617188 114.820312 99.476562 C 114.820312 100.332031 115.515625 101.023438 116.371094 101.023438 "/>
</g>
<g clip-path="url(#clip14)" clip-rule="nonzero">
<path style="fill:none;stroke-width:0.5;stroke-linecap:butt;stroke-linejoin:miter;stroke:rgb(13.725281%,12.156677%,12.548828%);stroke-opacity:1;stroke-miterlimit:4;" d="M 116.253605 101.386353 C 117.112147 101.386353 117.809957 100.692463 117.809957 99.833921 C 117.809957 98.971459 117.112147 98.277569 116.253605 98.277569 C 115.395063 98.277569 114.697253 98.971459 114.697253 99.833921 C 114.697253 100.692463 115.395063 101.386353 116.253605 101.386353 Z M 116.253605 101.386353 " transform="matrix(0.99642,0,0,0.99642,0.533622,0)"/>
</g>
<g clip-path="url(#clip15)" clip-rule="nonzero">
<path style=" stroke:none;fill-rule:nonzero;fill:rgb(100%,100%,100%);fill-opacity:1;" d="M 240.132812 101.023438 C 240.988281 101.023438 241.683594 100.332031 241.683594 99.476562 C 241.683594 98.617188 240.988281 97.925781 240.132812 97.925781 C 239.277344 97.925781 238.585938 98.617188 238.585938 99.476562 C 238.585938 100.332031 239.277344 101.023438 240.132812 101.023438 "/>
</g>
<g clip-path="url(#clip16)" clip-rule="nonzero">
<path style="fill:none;stroke-width:0.5;stroke-linecap:butt;stroke-linejoin:miter;stroke:rgb(13.725281%,12.156677%,12.548828%);stroke-opacity:1;stroke-miterlimit:4;" d="M 240.459924 101.386353 C 241.318466 101.386353 242.016276 100.692463 242.016276 99.833921 C 242.016276 98.971459 241.318466 98.277569 240.459924 98.277569 C 239.601382 98.277569 238.907492 98.971459 238.907492 99.833921 C 238.907492 100.692463 239.601382 101.386353 240.459924 101.386353 Z M 240.459924 101.386353 " transform="matrix(0.99642,0,0,0.99642,0.533622,0)"/>
</g>
<path style=" stroke:none;fill-rule:nonzero;fill:rgb(100%,100%,100%);fill-opacity:1;" d="M 240.132812 12.730469 C 240.988281 12.730469 241.683594 12.035156 241.683594 11.183594 C 241.683594 10.324219 240.988281 9.628906 240.132812 9.628906 C 239.277344 9.628906 238.585938 10.324219 238.585938 11.183594 C 238.585938 12.035156 239.277344 12.730469 240.132812 12.730469 "/>
<path style="fill:none;stroke-width:0.5;stroke-linecap:butt;stroke-linejoin:miter;stroke:rgb(13.725281%,12.156677%,12.548828%);stroke-opacity:1;stroke-miterlimit:4;" d="M 240.459924 12.776202 C 241.318466 12.776202 242.016276 12.078391 242.016276 11.22377 C 242.016276 10.361307 241.318466 9.663497 240.459924 9.663497 C 239.601382 9.663497 238.907492 10.361307 238.907492 11.22377 C 238.907492 12.078391 239.601382 12.776202 240.459924 12.776202 Z M 240.459924 12.776202 " transform="matrix(0.99642,0,0,0.99642,0.533622,0)"/>
<path style=" stroke:none;fill-rule:nonzero;fill:rgb(100%,100%,100%);fill-opacity:1;" d="M 240.132812 56.878906 C 240.988281 56.878906 241.683594 56.183594 241.683594 55.328125 C 241.683594 54.472656 240.988281 53.78125 240.132812 53.78125 C 239.277344 53.78125 238.585938 54.472656 238.585938 55.328125 C 238.585938 56.183594 239.277344 56.878906 240.132812 56.878906 "/>
<path style="fill:none;stroke-width:0.5;stroke-linecap:butt;stroke-linejoin:miter;stroke:rgb(13.725281%,12.156677%,12.548828%);stroke-opacity:1;stroke-miterlimit:4;" d="M 240.459924 57.083237 C 241.318466 57.083237 242.016276 56.385427 242.016276 55.526885 C 242.016276 54.668343 241.318466 53.974453 240.459924 53.974453 C 239.601382 53.974453 238.907492 54.668343 238.907492 55.526885 C 238.907492 56.385427 239.601382 57.083237 240.459924 57.083237 Z M 240.459924 57.083237 " transform="matrix(0.99642,0,0,0.99642,0.533622,0)"/>
<path style=" stroke:none;fill-rule:nonzero;fill:rgb(100%,100%,100%);fill-opacity:1;" d="M 284.972656 56.878906 C 285.828125 56.878906 286.523438 56.183594 286.523438 55.328125 C 286.523438 54.472656 285.828125 53.78125 284.972656 53.78125 C 284.117188 53.78125 283.421875 54.472656 283.421875 55.328125 C 283.421875 56.183594 284.117188 56.878906 284.972656 56.878906 "/>
<path style="fill:none;stroke-width:0.5;stroke-linecap:butt;stroke-linejoin:miter;stroke:rgb(13.725281%,12.156677%,12.548828%);stroke-opacity:1;stroke-miterlimit:4;" d="M 285.46085 57.083237 C 286.319392 57.083237 287.017202 56.385427 287.017202 55.526885 C 287.017202 54.668343 286.319392 53.974453 285.46085 53.974453 C 284.602308 53.974453 283.904498 54.668343 283.904498 55.526885 C 283.904498 56.385427 284.602308 57.083237 285.46085 57.083237 Z M 285.46085 57.083237 " transform="matrix(0.99642,0,0,0.99642,0.533622,0)"/>
<path style=" stroke:none;fill-rule:nonzero;fill:rgb(100%,100%,100%);fill-opacity:1;" d="M 116.371094 56.878906 C 117.226562 56.878906 117.921875 56.183594 117.921875 55.328125 C 117.921875 54.472656 117.226562 53.78125 116.371094 53.78125 C 115.515625 53.78125 114.820312 54.472656 114.820312 55.328125 C 114.820312 56.183594 115.515625 56.878906 116.371094 56.878906 "/>
<path style="fill:none;stroke-width:0.5;stroke-linecap:butt;stroke-linejoin:miter;stroke:rgb(13.725281%,12.156677%,12.548828%);stroke-opacity:1;stroke-miterlimit:4;" d="M 116.253605 57.083237 C 117.112147 57.083237 117.809957 56.385427 117.809957 55.526885 C 117.809957 54.668343 117.112147 53.974453 116.253605 53.974453 C 115.395063 53.974453 114.697253 54.668343 114.697253 55.526885 C 114.697253 56.385427 115.395063 57.083237 116.253605 57.083237 Z M 116.253605 57.083237 " transform="matrix(0.99642,0,0,0.99642,0.533622,0)"/>
<path style=" stroke:none;fill-rule:nonzero;fill:rgb(100%,100%,100%);fill-opacity:1;" d="M 163.117188 56.878906 C 163.972656 56.878906 164.671875 56.183594 164.671875 55.328125 C 164.671875 54.472656 163.972656 53.78125 163.117188 53.78125 C 162.261719 53.78125 161.566406 54.472656 161.566406 55.328125 C 161.566406 56.183594 162.261719 56.878906 163.117188 56.878906 "/>
<path style="fill:none;stroke-width:0.5;stroke-linecap:butt;stroke-linejoin:miter;stroke:rgb(13.725281%,12.156677%,12.548828%);stroke-opacity:1;stroke-miterlimit:4;" d="M 163.167629 57.083237 C 164.026171 57.083237 164.727902 56.385427 164.727902 55.526885 C 164.727902 54.668343 164.026171 53.974453 163.167629 53.974453 C 162.309087 53.974453 161.611277 54.668343 161.611277 55.526885 C 161.611277 56.385427 162.309087 57.083237 163.167629 57.083237 Z M 163.167629 57.083237 " transform="matrix(0.99642,0,0,0.99642,0.533622,0)"/>
<path style=" stroke:none;fill-rule:nonzero;fill:rgb(100%,100%,100%);fill-opacity:1;" d="M 72.40625 56.878906 C 73.261719 56.878906 73.953125 56.183594 73.953125 55.328125 C 73.953125 54.472656 73.261719 53.78125 72.40625 53.78125 C 71.546875 53.78125 70.855469 54.472656 70.855469 55.328125 C 70.855469 56.183594 71.546875 56.878906 72.40625 56.878906 "/>
<path style="fill:none;stroke-width:0.5;stroke-linecap:butt;stroke-linejoin:miter;stroke:rgb(13.725281%,12.156677%,12.548828%);stroke-opacity:1;stroke-miterlimit:4;" d="M 72.130823 57.083237 C 72.989365 57.083237 73.683255 56.385427 73.683255 55.526885 C 73.683255 54.668343 72.989365 53.974453 72.130823 53.974453 C 71.26836 53.974453 70.57447 54.668343 70.57447 55.526885 C 70.57447 56.385427 71.26836 57.083237 72.130823 57.083237 Z M 72.130823 57.083237 " transform="matrix(0.99642,0,0,0.99642,0.533622,0)"/>
<path style=" stroke:none;fill-rule:nonzero;fill:rgb(100%,100%,100%);fill-opacity:1;" d="M 27.316406 56.878906 C 28.171875 56.878906 28.867188 56.183594 28.867188 55.328125 C 28.867188 54.472656 28.171875 53.78125 27.316406 53.78125 C 26.460938 53.78125 25.765625 54.472656 25.765625 55.328125 C 25.765625 56.183594 26.460938 56.878906 27.316406 56.878906 "/>
<path style="fill:none;stroke-width:0.5;stroke-linecap:butt;stroke-linejoin:miter;stroke:rgb(13.725281%,12.156677%,12.548828%);stroke-opacity:1;stroke-miterlimit:4;" d="M 26.878999 57.083237 C 27.737541 57.083237 28.435351 56.385427 28.435351 55.526885 C 28.435351 54.668343 27.737541 53.974453 26.878999 53.974453 C 26.020457 53.974453 25.322646 54.668343 25.322646 55.526885 C 25.322646 56.385427 26.020457 57.083237 26.878999 57.083237 Z M 26.878999 57.083237 " transform="matrix(0.99642,0,0,0.99642,0.533622,0)"/>
</g>
</svg>
